<?xml version="1.0" encoding="UTF-8"?>
<svg version="1.1" xmlns="http://www.w3.org/2000/svg" width="500" height="500">
<path d="M0 0 C165 0 330 0 500 0 C500 165 500 330 500 500 C335 500 170 500 0 500 C0 335 0 170 0 0 Z " fill="#0D004C" transform="translate(0,0)"/>
<path d="M0 0 C3.08299949 1.38925286 4.84518514 1.75518294 8.1640625 1.42578125 C9.1540625 -1.21421875 10.1440625 -3.85421875 11.1640625 -6.57421875 C12.8140625 -6.57421875 14.4640625 -6.57421875 16.1640625 -6.57421875 C15.8340625 9.92578125 15.5040625 26.42578125 15.1640625 43.42578125 C13.5140625 43.42578125 11.8640625 43.42578125 10.1640625 43.42578125 C10.00550781 42.4821875 9.84695312 41.53859375 9.68359375 40.56640625 C7.13478882 26.54093826 2.82797249 11.90123243 -8.87109375 2.7109375 C-16.40431045 -2.21635533 -23.9224463 -3.7148634 -32.8359375 -2.57421875 C-39.94889575 -0.88113432 -44.9111914 2.18384189 -48.8359375 8.42578125 C-51.0290977 15.00526184 -51.21366666 24.63534661 -48.1484375 30.98828125 C-44.28199515 37.62328726 -39.09062008 42.03045928 -32.8984375 46.36328125 C-32.12282471 46.91612793 -31.34721191 47.46897461 -30.5480957 48.03857422 C-25.21123013 51.82085416 -19.79844597 55.48502631 -14.36962891 59.13354492 C19.55015977 81.98241269 19.55015977 81.98241269 23.80078125 99.765625 C25.48087875 112.06827447 24.29685603 123.06870562 16.94140625 133.265625 C7.80112378 144.37458369 -5.52784809 150.98375656 -19.8359375 152.42578125 C-37.70908398 153.69949245 -53.03127218 152.55501432 -68.72265625 143.24609375 C-71.43336885 142.19387629 -73.08388301 142.64498821 -75.8359375 143.42578125 C-76.4959375 145.73578125 -77.1559375 148.04578125 -77.8359375 150.42578125 C-79.4859375 150.42578125 -81.1359375 150.42578125 -82.8359375 150.42578125 C-82.8359375 130.95578125 -82.8359375 111.48578125 -82.8359375 91.42578125 C-80.8559375 91.42578125 -78.8759375 91.42578125 -76.8359375 91.42578125 C-76.77647949 91.97814453 -76.71702148 92.53050781 -76.65576172 93.09960938 C-74.57090971 111.63674658 -71.3742107 128.18255729 -56.9375 141.1015625 C-50.94278258 144.87890303 -44.96287886 145.98505615 -37.9609375 145.92578125 C-36.77902832 145.91720093 -36.77902832 145.91720093 -35.57324219 145.90844727 C-27.18516519 145.6518281 -21.15830552 143.19199324 -15.3359375 137.05078125 C-10.68868739 130.94634254 -9.9652497 123.87127822 -10.8359375 116.42578125 C-15.50787952 97.41275137 -34.13527209 87.47114147 -49.29418945 77.47338867 C-63.71290945 67.92948812 -77.39701446 57.96459932 -81.8359375 40.42578125 C-82.24425814 37.2657346 -82.31524637 34.17191314 -82.2734375 30.98828125 C-82.26368896 30.15498291 -82.25394043 29.32168457 -82.24389648 28.46313477 C-81.93887761 17.88259861 -78.66494558 11.3490651 -71.328125 3.6875 C-51.809519 -14.02609385 -21.65031965 -11.80260089 0 0 Z " fill="#FBFBFC" transform="translate(142.8359375,154.57421875)"/>
<path d="M0 0 C7.51815611 4.0967198 10.74306198 11.83666844 13.11328125 19.6875 C16.32570463 33.28011623 15.0370966 49.41066101 8.5390625 61.78125 C6.137735 65.63312558 4.34495198 68.35052749 0 70 C-4.37932667 70.8416053 -8.3125263 70.92148734 -12.2890625 68.75 C-17.34479775 64.65996699 -20.05392914 60.14548694 -22 54 C-22.22429687 53.3090625 -22.44859375 52.618125 -22.6796875 51.90625 C-26.02068641 38.90839124 -25.83787433 21.43314139 -19.67578125 9.41796875 C-14.82010542 1.5290886 -9.40553163 -3.03668997 0 0 Z " fill="#0F034E" transform="translate(221,233)"/>
<path d="M0 0 C0.87954346 0.01353516 1.75908691 0.02707031 2.6652832 0.04101562 C12.74120025 0.3625775 19.62614433 3.10790564 27.015625 10.078125 C35.21272337 19.77698185 36.79892207 30.2630243 36.24169922 42.4609375 C35.33566685 52.77045023 30.14993553 60.80964922 22.8125 67.75 C13.29102206 75.27669746 2.73236386 75.59964386 -8.9375 74.5 C-19.03665474 72.64068542 -25.82761425 66.47529335 -31.9375 58.5 C-37.42879643 49.20993002 -37.63988531 35.33244326 -35.06640625 25.00390625 C-31.22518847 15.11749328 -24.50744184 7.07834853 -14.89453125 2.421875 C-9.86193258 0.22682693 -5.44007703 -0.12120406 0 0 Z M-9.9375 5.5 C-19.94198187 17.12285394 -19.98206708 31.92753228 -18.9375 46.5 C-17.91888532 54.37254912 -16.04974351 61.30688215 -10.9375 67.5 C-10.29167969 68.28890625 -10.29167969 68.28890625 -9.6328125 69.09375 C-6.65949301 72.11746473 -4.01305591 72.87308136 0.0625 73.0625 C4.81221213 72.77053868 7.57188013 71.90944266 11.0625 68.5 C13.13476641 65.30870972 14.64244161 62.02496763 16.0625 58.5 C16.54589844 57.33210938 16.54589844 57.33210938 17.0390625 56.140625 C21.45306783 43.18737571 20.9573532 25.88642468 15.0625 13.5 C12.12353514 8.55719547 8.64798865 3.58868473 2.9140625 1.84765625 C-2.69492966 1.12931164 -5.61355939 1.4643221 -9.9375 5.5 Z " fill="#F9F9FA" transform="translate(215.9375,230.5)"/>
<path d="M0 0 C140.91 0 281.82 0 427 0 C427 1.65 427 3.3 427 5 C286.09 5 145.18 5 0 5 C0 3.35 0 1.7 0 0 Z " fill="#F2F2F5" transform="translate(47,318)"/>
<path d="M0 0 C9.9 0 19.8 0 30 0 C30 0.66 30 1.32 30 2 C28.02 2.66 26.04 3.32 24 4 C24.63131874 9.73551016 26.67776899 14.68716419 28.81640625 19.9921875 C29.19232407 20.93812775 29.56824188 21.88406799 29.95555115 22.8586731 C31.15229465 25.8663719 32.35726752 28.87069418 33.5625 31.875 C34.37749906 33.91905325 35.1919583 35.96332181 36.00585938 38.0078125 C37.9976593 43.00771973 39.99621807 48.00488355 42 53 C44.12148968 49.81776548 45.23057337 46.91441342 46.53125 43.3203125 C46.76783325 42.67053436 47.0044165 42.02075623 47.24816895 41.35128784 C48.00254061 39.27720125 48.751453 37.201195 49.5 35.125 C50.24964679 33.05636053 51.00041753 30.98813383 51.75183105 28.9201355 C52.43482016 27.03877555 53.11494616 25.15637695 53.79492188 23.27392578 C54.5430106 21.24153726 55.31819515 19.21864577 56.13500977 17.21289062 C57.57688604 13.52416171 57.74951866 9.88250666 57 6 C54.38479318 3.73819951 52.26192902 3.08730967 49 2 C49 1.34 49 0.68 49 0 C55.93 0 62.86 0 70 0 C69 3 69 3 66.6875 5.1875 C60.93324757 11.20939208 58.55684778 19.54554798 55.77734375 27.25390625 C55.19721275 28.84343361 55.19721275 28.84343361 54.60536194 30.46507263 C53.37825684 33.82926897 52.1575072 37.19572386 50.9375 40.5625 C49.7129506 43.93248114 48.48702049 47.30194801 47.25892639 50.67063904 C46.49755928 52.76002865 45.73836355 54.85021119 44.98167419 56.94129944 C43.12957338 62.03333448 41.19746877 67.04674931 39 72 C36.69 72 34.38 72 32 72 C28.83938691 65.89996758 26.17003039 59.70444062 23.62890625 53.32421875 C23.22469955 52.31841263 22.82049286 51.31260651 22.40403748 50.27632141 C21.12033565 47.08131611 19.84099826 43.88459074 18.5625 40.6875 C17.28727235 37.50124467 16.01099253 34.31542883 14.73167419 31.1308136 C13.93890738 29.15717764 13.14842764 27.18262075 12.36073303 25.20695496 C10.45689005 20.46519644 8.50325457 15.74500959 6.46850586 11.05786133 C6.09149033 10.1832576 5.71447479 9.30865387 5.32603455 8.407547 C3.88107003 5.78407087 2.126628 4.08418722 0 2 C0 1.34 0 0.68 0 0 Z " fill="#FAFAFB" transform="translate(339,232)"/>
<path d="M0 0 C10.56 0 21.12 0 32 0 C32 0.66 32 1.32 32 2 C31.030625 2.309375 30.06125 2.61875 29.0625 2.9375 C26.15934208 3.69523342 26.15934208 3.69523342 25 5 C24.90594858 6.9943173 24.88256751 8.99199543 24.88647461 10.98852539 C24.88658791 12.91040428 24.88658791 12.91040428 24.88670349 14.87110901 C24.89181091 16.27995848 24.89702691 17.68880756 24.90234375 19.09765625 C24.90420798 20.53112234 24.90563186 21.96458907 24.90663147 23.39805603 C24.91045628 27.17759957 24.92028623 30.9571049 24.93133545 34.7366333 C24.94155037 38.59069298 24.94612926 42.44475882 24.95117188 46.29882812 C24.96190854 53.86590287 24.97898451 61.43294609 25 69 C27.09365997 69.03043547 29.18744697 69.05222287 31.28125 69.0703125 C32.44720703 69.08336426 33.61316406 69.09641602 34.81445312 69.10986328 C40.15846257 68.92555885 42.73571537 67.171776 46.5625 63.625 C50.32976793 58.83029537 52.01657314 52.68863704 54 47 C54.66 47 55.32 47 56 47 C56 55.25 56 63.5 56 72 C37.52 72 19.04 72 0 72 C0 71.34 0 70.68 0 70 C2.31 69.01 4.62 68.02 7 67 C7.04628835 58.95076017 7.08185126 50.90157571 7.10362434 42.85223579 C7.11407298 39.1148217 7.1282517 35.3774985 7.15087891 31.64013672 C7.17256904 28.035095 7.18456049 24.43014083 7.18975449 20.82503891 C7.19345716 19.44788102 7.20068734 18.07072806 7.21146011 16.69360733 C7.22592335 14.76860455 7.22681648 12.84351413 7.22705078 10.91845703 C7.231492 9.82147491 7.23593323 8.7244928 7.24050903 7.5942688 C7.26353228 4.83765688 7.26353228 4.83765688 5 3 C2.42938689 2.35232207 2.42938689 2.35232207 0 2 C0 1.34 0 0.68 0 0 Z " fill="#FDFDFD" transform="translate(274,232)"/>
<path d="M0 0 C3.34625024 2.52676039 4.67977847 4.03933542 6 8 C6.36878104 13.62391086 6.1678247 17.13512635 3 22 C-0.74167686 25.39267012 -3.66391327 25.6531748 -8.58203125 25.45703125 C-11 25 -11 25 -14.125 22.75 C-17.20859306 18.16834931 -16.84892177 12.25624064 -16 7 C-12.46389676 -0.22639704 -7.54439061 -1.20325209 0 0 Z " fill="#E9E9EE" transform="translate(232,345)"/>
<path d="M0 0 C14.31742174 -0.57354657 14.31742174 -0.57354657 19 3 C21.95050992 6.44226158 22.48601833 9.48584514 22.28125 14.0078125 C21.82782787 17.21955259 20.85101785 19.34687441 19 22 C14.41087848 24.86145224 10.98498583 25.33919771 5.625 25.1875 C4.37976563 25.16042969 3.13453125 25.13335937 1.8515625 25.10546875 C0.91054687 25.07066406 -0.03046875 25.03585937 -1 25 C-1 24.34 -1 23.68 -1 23 C-0.01 23 0.98 23 2 23 C2 16.4 2 9.8 2 3 C1.01 3 0.02 3 -1 3 C-0.67 2.01 -0.34 1.02 0 0 Z " fill="#DADAE3" transform="translate(159,345)"/>
<path d="M0 0 C2.75569447 2.18159145 4.43588747 3.87177494 6 7 C6.42526125 11.62062705 6.56310381 15.71290557 4.6875 20 C2.59367595 22.48156925 0.92170896 23.86766783 -2.33984375 24.3359375 C-9.39587426 24.44204322 -9.39587426 24.44204322 -12.5625 22.125 C-15.95015503 17.11716213 -15.59005189 11.90051887 -15 6 C-11.34691014 -0.21025277 -6.84732541 -1.08800335 0 0 Z " fill="#E1E1E8" transform="translate(224,431)"/>
<path d="M0 0 C2.6953125 -0.4375 2.6953125 -0.4375 6 0 C7.96938498 2.36085294 9.38172633 4.36899401 10.875 7 C11.2771875 7.66773438 11.679375 8.33546875 12.09375 9.0234375 C13.08210073 10.67068871 14.04371066 12.33393145 15 14 C15.33 10.37 15.66 6.74 16 3 C15.34 3 14.68 3 14 3 C14 2.01 14 1.02 14 0 C16.31 0 18.62 0 21 0 C21 0.99 21 1.98 21 3 C20.34 3 19.68 3 19 3 C19 9.93 19 16.86 19 24 C13.89381648 22.72345412 12.79978117 20.18575104 10.25 15.9375 C9.83878906 15.27427734 9.42757813 14.61105469 9.00390625 13.92773438 C7.99175664 12.29181814 6.99442493 10.64675068 6 9 C5.67 12.96 5.34 16.92 5 21 C5.66 21 6.32 21 7 21 C7 21.99 7 22.98 7 24 C4.69 24 2.38 24 0 24 C0 23.34 0 22.68 0 22 C0.66 22 1.32 22 2 22 C2 15.4 2 8.8 2 2 C1.34 2 0.68 2 0 2 C0 1.34 0 0.68 0 0 Z " fill="#E6E7EC" transform="translate(363,431)"/>
<path d="M0 0 C2.6953125 -0.4375 2.6953125 -0.4375 6 0 C7.96938498 2.36085294 9.38172633 4.36899401 10.875 7 C11.2771875 7.66773438 11.679375 8.33546875 12.09375 9.0234375 C13.08210073 10.67068871 14.04371066 12.33393145 15 14 C15.33 10.37 15.66 6.74 16 3 C15.34 3 14.68 3 14 3 C14 2.01 14 1.02 14 0 C16.31 0 18.62 0 21 0 C21 0.99 21 1.98 21 3 C20.34 3 19.68 3 19 3 C19 9.93 19 16.86 19 24 C13.89381648 22.72345412 12.79978117 20.18575104 10.25 15.9375 C9.83878906 15.27427734 9.42757812 14.61105469 9.00390625 13.92773438 C7.99175664 12.29181814 6.99442493 10.64675068 6 9 C5.67 12.96 5.34 16.92 5 21 C5.66 21 6.32 21 7 21 C7 21.99 7 22.98 7 24 C4.69 24 2.38 24 0 24 C0 23.34 0 22.68 0 22 C0.66 22 1.32 22 2 22 C2 15.4 2 8.8 2 2 C1.34 2 0.68 2 0 2 C0 1.34 0 0.68 0 0 Z " fill="#E6E7EC" transform="translate(233,431)"/>
<path d="M0 0 C5.61 0 11.22 0 17 0 C17 2.31 17 4.62 17 7 C16.01 7 15.02 7 14 7 C14 5.68 14 4.36 14 3 C11.69 3 9.38 3 7 3 C7 5.64 7 8.28 7 11 C8.98 11 10.96 11 13 11 C13 12.32 13 13.64 13 15 C11.02 15 9.04 15 7 15 C7 17.31 7 19.62 7 22 C9.64 22 12.28 22 15 22 C15 20.68 15 19.36 15 18 C15.99 18 16.98 18 18 18 C18 20.31 18 22.62 18 25 C11.73 25 5.46 25 -1 25 C-0.67 24.34 -0.34 23.68 0 23 C0.66 23 1.32 23 2 23 C2 16.4 2 9.8 2 3 C1.34 3 0.68 3 0 3 C0 2.01 0 1.02 0 0 Z " fill="#DFDFE6" transform="translate(327,345)"/>
<path d="M0 0 C1.95605469 0.17602539 1.95605469 0.17602539 4 1 C5.00488281 2.82592773 5.00488281 2.82592773 5.703125 5.18359375 C5.9609375 6.02857422 6.21875 6.87355469 6.484375 7.74414062 C6.73703125 8.63294922 6.9896875 9.52175781 7.25 10.4375 C7.518125 11.32244141 7.78625 12.20738281 8.0625 13.11914062 C10 19.6087771 10 19.6087771 10 22 C10.99 22 11.98 22 13 22 C12.67 22.99 12.34 23.98 12 25 C9.03 25 6.06 25 3 25 C3 24.34 3 23.68 3 23 C3.66 23 4.32 23 5 23 C4.67 21.02 4.34 19.04 4 17 C1.69 17 -0.62 17 -3 17 C-3.33 18.98 -3.66 20.96 -4 23 C-3.01 23.33 -2.02 23.66 -1 24 C-2 25 -2 25 -3.84765625 25.09765625 C-5.8984375 25.06510417 -7.94921875 25.03255208 -10 25 C-10 24.34 -10 23.68 -10 23 C-9.01 23 -8.02 23 -7 23 C-6.7525 21.783125 -6.505 20.56625 -6.25 19.3125 C-2.52932889 2.52932889 -2.52932889 2.52932889 0 0 Z " fill="#E7E7EC" transform="translate(280,345)"/>
<path d="M0 0 C1.95605469 0.17602539 1.95605469 0.17602539 4 1 C5.00488281 2.82592773 5.00488281 2.82592773 5.703125 5.18359375 C5.9609375 6.02857422 6.21875 6.87355469 6.484375 7.74414062 C6.73703125 8.63294922 6.9896875 9.52175781 7.25 10.4375 C7.518125 11.32244141 7.78625 12.20738281 8.0625 13.11914062 C10 19.6087771 10 19.6087771 10 22 C10.99 22 11.98 22 13 22 C12.67 22.99 12.34 23.98 12 25 C9.03 25 6.06 25 3 25 C3 24.34 3 23.68 3 23 C3.66 23 4.32 23 5 23 C4.67 21.02 4.34 19.04 4 17 C1.69 17 -0.62 17 -3 17 C-3.33 18.98 -3.66 20.96 -4 23 C-3.01 23.33 -2.02 23.66 -1 24 C-2 25 -2 25 -3.84765625 25.09765625 C-5.8984375 25.06510417 -7.94921875 25.03255208 -10 25 C-10 24.34 -10 23.68 -10 23 C-9.01 23 -8.02 23 -7 23 C-6.7525 21.783125 -6.505 20.56625 -6.25 19.3125 C-2.52932889 2.52932889 -2.52932889 2.52932889 0 0 Z " fill="#E7E7EC" transform="translate(139,345)"/>
<path d="M0 0 C6.57692308 0.57692308 6.57692308 0.57692308 8 2 C8.04063832 3.66617115 8.042721 5.33388095 8 7 C6.02 7.99 6.02 7.99 4 9 C5.65 10.65 7.3 12.3 9 14 C9.33 13.34 9.66 12.68 10 12 C9.34 12 8.68 12 8 12 C8 11.34 8 10.68 8 10 C9.98 10 11.96 10 14 10 C14 10.66 14 11.32 14 12 C13.34 12 12.68 12 12 12 C11.67 13.65 11.34 15.3 11 17 C12.65 17 14.3 17 16 17 C16 17.99 16 18.98 16 20 C13.04112541 20.08069658 10.0844341 20.14034665 7.125 20.1875 C6.28324219 20.21263672 5.44148437 20.23777344 4.57421875 20.26367188 C3.76855469 20.27333984 2.96289062 20.28300781 2.1328125 20.29296875 C1.01737061 20.31653442 1.01737061 20.31653442 -0.12060547 20.34057617 C-0.74080566 20.22818604 -1.36100586 20.1157959 -2 20 C-4 17 -4 17 -3.6875 14.5625 C-3.28408991 13.05888056 -2.87155036 11.55756234 -2.4375 10.0625 C-1.88487671 7.84172941 -1.88487671 7.84172941 -2.0625 4.875 C-2 2 -2 2 0 0 Z " fill="#E9EAEE" transform="translate(250,392)"/>
<path d="M0 0 C5.61 0 11.22 0 17 0 C17 1.98 17 3.96 17 6 C16.01 6.33 15.02 6.66 14 7 C14 5.68 14 4.36 14 3 C11.69 3 9.38 3 7 3 C7 5.64 7 8.28 7 11 C8.98 11 10.96 11 13 11 C13 11.99 13 12.98 13 14 C11.02 14 9.04 14 7 14 C7 16.31 7 18.62 7 21 C9.64 21 12.28 21 15 21 C15 19.68 15 18.36 15 17 C15.66 17 16.32 17 17 17 C17 19.31 17 21.62 17 24 C11.39 24 5.78 24 0 24 C0 23.34 0 22.68 0 22 C0.66 22 1.32 22 2 22 C2 15.73 2 9.46 2 3 C1.34 3 0.68 3 0 3 C0 2.01 0 1.02 0 0 Z " fill="#E6E6EC" transform="translate(93,431)"/>
<path d="M0 0 C1.96044922 0.16015625 1.96044922 0.16015625 4 1 C4.97314453 2.93359375 4.97314453 2.93359375 5.6328125 5.4375 C5.88160156 6.33210938 6.13039062 7.22671875 6.38671875 8.1484375 C6.75216797 9.55996094 6.75216797 9.55996094 7.125 11 C7.62078152 12.8560026 8.12305374 14.71028754 8.6328125 16.5625 C8.84824707 17.38878906 9.06368164 18.21507812 9.28564453 19.06640625 C9.82186654 21.19594104 9.82186654 21.19594104 12 22 C12 22.66 12 23.32 12 24 C9.03 24 6.06 24 3 24 C3 23.34 3 22.68 3 22 C3.66 22 4.32 22 5 22 C4.67 20.35 4.34 18.7 4 17 C1.69 17 -0.62 17 -3 17 C-3.33 18.65 -3.66 20.3 -4 22 C-3.01 22.33 -2.02 22.66 -1 23 C-2 24 -2 24 -3.84765625 24.09765625 C-5.8984375 24.06510417 -7.94921875 24.03255208 -10 24 C-10 23.34 -10 22.68 -10 22 C-9.01 22 -8.02 22 -7 22 C-6.7525 20.7625 -6.505 19.525 -6.25 18.25 C-2.83895706 2.83895706 -2.83895706 2.83895706 0 0 Z " fill="#E6E6EC" transform="translate(145,431)"/>
<path d="M0 0 C1.32 0 2.64 0 4 0 C5.0070436 3.1019264 6.00440805 6.20688098 7 9.3125 C7.28617187 10.19357422 7.57234375 11.07464844 7.8671875 11.98242188 C8.13789063 12.82998047 8.40859375 13.67753906 8.6875 14.55078125 C8.93886719 15.33106689 9.19023437 16.11135254 9.44921875 16.9152832 C10 19 10 19 10 22 C10.66 22 11.32 22 12 22 C12 22.66 12 23.32 12 24 C9.03 24 6.06 24 3 24 C3 23.34 3 22.68 3 22 C3.66 22 4.32 22 5 22 C4.67 20.35 4.34 18.7 4 17 C1.69 17 -0.62 17 -3 17 C-3 18.65 -3 20.3 -3 22 C-2.34 22 -1.68 22 -1 22 C-1 22.66 -1 23.32 -1 24 C-3.64 24 -6.28 24 -9 24 C-9 23.34 -9 22.68 -9 22 C-8.01 22 -7.02 22 -6 22 C-5.88785156 21.00871094 -5.77570313 20.01742188 -5.66015625 18.99609375 C-5.06582645 14.83578513 -3.82332515 11.01811858 -2.4375 7.0625 C-2.20353516 6.37865234 -1.96957031 5.69480469 -1.72851562 4.99023438 C-1.15788171 3.32491499 -0.57972902 1.66217507 0 0 Z " fill="#E4E4EA" transform="translate(348,431)"/>
<path d="M0 0 C6.93 0 13.86 0 21 0 C20 3 20 3 17.6875 5.1875 C12.41680114 10.70334764 10.1439496 17.96046764 7.65234375 25.05859375 C7.0413965 26.75990245 6.4300573 28.46107044 5.81835938 30.16210938 C4.87014355 32.8159769 3.92566847 35.47103534 2.98803711 38.12866211 C2.07381393 40.7132418 1.14541438 43.29236317 0.21484375 45.87109375 C-0.06335709 46.67203964 -0.34155792 47.47298553 -0.62818909 48.29820251 C-1.33147337 50.23281423 -2.15591515 52.12254107 -3 54 C-4.485 54.495 -4.485 54.495 -6 55 C-4.38781114 49.1421217 -2.46311677 43.45561156 -0.30078125 37.77734375 C-0.05939423 37.14172516 0.1819928 36.50610657 0.43069458 35.85122681 C1.4336306 33.21309855 2.43810687 30.57589943 3.46508789 27.94702148 C7.67908467 17.29841989 7.67908467 17.29841989 8 6 C5.38479318 3.73819951 3.26192902 3.08730967 0 2 C0 1.34 0 0.68 0 0 Z " fill="#F8F8FA" transform="translate(388,232)"/>
<path d="M0 0 C0.66 0 1.32 0 2 0 C2 8.25 2 16.5 2 25 C-11.86 25 -25.72 25 -40 25 C-40 24.67 -40 24.34 -40 24 C-32.08 24 -24.16 24 -16 24 C-16 23.34 -16 22.68 -16 22 C-14.6696875 21.443125 -14.6696875 21.443125 -13.3125 20.875 C-5.02290998 16.18277923 -3.00499376 8.61857784 0 0 Z " fill="#EEEDF2" transform="translate(328,279)"/>
<path d="M0 0 C3 1.5625 3 1.5625 5 4 C5.6269883 7.90126052 5.57975697 10.01693383 3.5625 13.4375 C-0.23964277 15.75587974 -3.66240478 15.77201236 -8 15 C-10.5625 13.4375 -10.5625 13.4375 -12 11 C-12.55802097 7.09385318 -12.58392818 4.94888329 -10.5 1.5625 C-7.02413311 -0.60991681 -3.93042627 -0.75495317 0 0 Z " fill="#F9F9FA" transform="translate(434,290)"/>
<path d="M0 0 C3.5 0.5625 3.5 0.5625 5.1953125 2.2890625 C7.44990323 6.2177206 7.00420397 10.16669355 6.5 14.5625 C5.4375 17.6875 5.4375 17.6875 3.5 19.5625 C0 20.1875 0 20.1875 -3.5 19.5625 C-6.36431403 16.69818597 -6.71220253 13.96312743 -6.875 10.0625 C-6.64359877 4.51812655 -6.01020081 0.96592513 0 0 Z " fill="#150852" transform="translate(226.5,347.4375)"/>
<path d="M0 0 C0.87527344 -0.01417969 1.75054687 -0.02835937 2.65234375 -0.04296875 C5.0625 0.1875 5.0625 0.1875 8.0625 2.1875 C7.7325 3.8375 7.4025 5.4875 7.0625 7.1875 C6.4025 7.1875 5.7425 7.1875 5.0625 7.1875 C4.7325 5.8675 4.4025 4.5475 4.0625 3.1875 C0.68813814 2.85369186 0.68813814 2.85369186 -2.9375 3.1875 C-5.07431698 5.30968124 -5.8614971 6.67018993 -6.30078125 9.66015625 C-6.27564453 10.94212891 -6.27564453 10.94212891 -6.25 12.25 C-6.24613281 13.10722656 -6.24226563 13.96445312 -6.23828125 14.84765625 C-6.07898154 17.45637304 -6.07898154 17.45637304 -3.9375 20.1875 C-1.97388136 20.76498803 -1.97388136 20.76498803 0.1875 20.875 C1.46625 20.978125 2.745 21.08125 4.0625 21.1875 C4.0625 19.2075 4.0625 17.2275 4.0625 15.1875 C2.7425 15.1875 1.4225 15.1875 0.0625 15.1875 C0.0625 14.5275 0.0625 13.8675 0.0625 13.1875 C3.3625 13.1875 6.6625 13.1875 10.0625 13.1875 C10.0625 13.8475 10.0625 14.5075 10.0625 15.1875 C9.4025 15.1875 8.7425 15.1875 8.0625 15.1875 C8.18625 16.5796875 8.18625 16.5796875 8.3125 18 C8.0625 21.1875 8.0625 21.1875 6.359375 22.859375 C2.44403078 25.12334955 -1.55004228 24.86642441 -5.9375 24.1875 C-8.51387471 22.30234777 -9.53417428 20.99415143 -10.9375 18.1875 C-11.87512008 7.78145414 -11.87512008 7.78145414 -9.0625 3 C-5.89434563 0.29775069 -4.09411547 0.03005958 0 0 Z " fill="#EAEAEF" transform="translate(123.9375,430.8125)"/>
<path d="M0 0 C2.64 0 5.28 0 8 0 C8 0.99 8 1.98 8 3 C7.34 3 6.68 3 6 3 C6.33 8.94 6.66 14.88 7 21 C8.98 21 10.96 21 13 21 C15.93447357 18.06552643 15.46158423 14.81740544 15.625 10.875 C15.66367187 10.12089844 15.70234375 9.36679687 15.7421875 8.58984375 C15.83651031 6.72696816 15.91934662 4.86351745 16 3 C15.34 3 14.68 3 14 3 C14 2.01 14 1.02 14 0 C16.64 0 19.28 0 22 0 C21.67 0.99 21.34 1.98 21 3 C20.34 3 19.68 3 19 3 C19.04640625 4.09699219 19.0928125 5.19398438 19.140625 6.32421875 C19.1781579 7.7786185 19.21455643 9.23304783 19.25 10.6875 C19.30027344 11.7693457 19.30027344 11.7693457 19.3515625 12.87304688 C19.42112635 16.68166753 19.22256383 18.61516052 17.26953125 21.9921875 C14.71151194 24.25522007 13.78769359 24.61322927 10.4375 24.4375 C9.67308594 24.41558594 8.90867187 24.39367187 8.12109375 24.37109375 C6 24 6 24 3 22 C1.74566542 18.23699626 1.89304578 14.72789091 1.9375 10.8125 C1.94201172 10.06291016 1.94652344 9.31332031 1.95117188 8.54101562 C1.96293646 6.69397617 1.98087135 4.84697787 2 3 C1.01 3 0.02 3 -1 3 C-0.67 2.01 -0.34 1.02 0 0 Z " fill="#E8E8ED" transform="translate(275,431)"/>
<path d="M0 0 C3.3 0 6.6 0 10 0 C9.34 1.32 8.68 2.64 8 4 C8.40529975 6.5273308 8.40529975 6.5273308 9.375 9.0625 C10.38228009 11.97485329 11 13.89340053 11 17 C11.66 17 12.32 17 13 17 C13.12117187 16.40832031 13.24234375 15.81664062 13.3671875 15.20703125 C14.26744643 10.96196415 15.20456621 6.97560339 17 3 C16.34 3 15.68 3 15 3 C15 2.01 15 1.02 15 0 C17.64 0 20.28 0 23 0 C22.67 0.99 22.34 1.98 22 3 C21.34 3 20.68 3 20 3 C19.82984375 3.66644531 19.6596875 4.33289063 19.484375 5.01953125 C17.69190972 11.83661993 15.50936426 18.41451106 13 25 C11.68 25 10.36 25 9 25 C8.79842285 24.36908447 8.5968457 23.73816895 8.38916016 23.08813477 C7.47555745 20.24368706 6.55044903 17.40311438 5.625 14.5625 C5.30789062 13.56927734 4.99078125 12.57605469 4.6640625 11.55273438 C4.3546875 10.60849609 4.0453125 9.66425781 3.7265625 8.69140625 C3.44377441 7.81685791 3.16098633 6.94230957 2.86962891 6.04125977 C2.18468928 3.82251791 2.18468928 3.82251791 0 3 C0 2.01 0 1.02 0 0 Z " fill="#E6E7EC" transform="translate(187,345)"/>
<path d="M0 0 C0.99 0.66 1.98 1.32 3 2 C2.67 3.65 2.34 5.3 2 7 C1.34 7 0.68 7 0 7 C-0.66 6.01 -1.32 5.02 -2 4 C-4.58380177 3.74969023 -4.58380177 3.74969023 -7 4 C-6.83996502 5.92409885 -6.83996502 5.92409885 -6 8 C-3.96576202 9.53011297 -3.96576202 9.53011297 -1.5 10.6875 C2.97411003 12.97411003 2.97411003 12.97411003 4 14 C4.34683394 17.67643975 4.45864266 20.14823505 2.6875 23.4375 C-1.57036467 25.91300271 -6.18599987 25.65714922 -11 25 C-11.66 24.34 -12.32 23.68 -13 23 C-12.625 20.375 -12.625 20.375 -12 18 C-11.01 18 -10.02 18 -9 18 C-8.34 19.32 -7.68 20.64 -7 22 C-5.35 22 -3.7 22 -2 22 C-1.67 20.35 -1.34 18.7 -1 17 C-2.06541016 16.47212891 -2.06541016 16.47212891 -3.15234375 15.93359375 C-10.65792031 11.90184645 -10.65792031 11.90184645 -12.375 7.375 C-12 4 -12 4 -10.5625 1.5625 C-6.79160809 -0.73682434 -4.39039697 -0.41813304 0 0 Z " fill="#E7E7EC" transform="translate(364,345)"/>
<path d="M0 0 C3 0.4375 3 0.4375 4.66015625 1.59375 C6.55930577 4.20715693 6.43354278 6.17360566 6.4375 9.375 C6.45683594 10.41527344 6.47617188 11.45554687 6.49609375 12.52734375 C5.88928774 16.08695379 4.84337993 17.27632295 2 19.4375 C-0.5625 19.4375 -0.5625 19.4375 -3 18.4375 C-5.75557316 15.47707607 -6.4117206 13.45228567 -6.375 9.4375 C-6.38273438 8.591875 -6.39046875 7.74625 -6.3984375 6.875 C-5.70624816 2.64042992 -4.27782523 0.62384951 0 0 Z " fill="#130750" transform="translate(219,433.5625)"/>
<path d="M0 0 C2.5 1.5 2.5 1.5 4 3 C3.67 4.32 3.34 5.64 3 7 C2.01 7 1.02 7 0 7 C-0.33 6.01 -0.66 5.02 -1 4 C-3.91634129 3.7497843 -3.91634129 3.7497843 -7 4 C-9.31590289 7.47385433 -9.26991835 8.96430006 -9.25 13.0625 C-9.25515625 14.12597656 -9.2603125 15.18945312 -9.265625 16.28515625 C-9.27557135 19.14768903 -9.27557135 19.14768903 -7 21 C-2.86002433 21.1971417 0.07703567 21.30765478 4 20 C3.625 21.9375 3.625 21.9375 3 24 C-0.9994558 25.9997279 -5.66067646 25.61901013 -10 25 C-13.83536585 22.29268293 -13.83536585 22.29268293 -15 19 C-15.78039709 14.1995742 -16.20967859 9.36154166 -13.9375 4.92578125 C-9.93926967 0.01128981 -6.11688003 -0.72532174 0 0 Z " fill="#E7E7EC" transform="translate(260,345)"/>
<path d="M0 0 C0.66 0.33 1.32 0.66 2 1 C2 2.98 2 4.96 2 7 C1.01 7 0.02 7 -1 7 C-1.66 5.68 -2.32 4.36 -3 3 C-4.65 3 -6.3 3 -8 3 C-7.57069449 5.42240798 -7.57069449 5.42240798 -6 8 C-4.0178628 9.23883575 -2.01958294 10.17904046 0.125 11.10546875 C2 12 2 12 4 14 C3.87022682 17.56876242 3.72179807 20.06767749 1.5 22.9375 C-2.2458101 24.52946929 -5.98678555 24.56909303 -10 24 C-10.99 23.34 -11.98 22.68 -13 22 C-12.67 20.35 -12.34 18.7 -12 17 C-11.01 17 -10.02 17 -9 17 C-8.34 18.32 -7.68 19.64 -7 21 C-5.35 21 -3.7 21 -2 21 C-1.67 19.35 -1.34 17.7 -1 16 C-1.62648438 15.66226562 -2.25296875 15.32453125 -2.8984375 14.9765625 C-3.71570313 14.53054688 -4.53296875 14.08453125 -5.375 13.625 C-6.59316406 12.96371094 -6.59316406 12.96371094 -7.8359375 12.2890625 C-10 11 -10 11 -12 9 C-11.8125 5.5 -11.8125 5.5 -11 2 C-6.94641576 -0.70238949 -4.81689896 -0.22937614 0 0 Z " fill="#E5E5EB" transform="translate(421,431)"/>
<path d="M0 0 C0.66 0.33 1.32 0.66 2 1 C2 2.98 2 4.96 2 7 C1.01 7 0.02 7 -1 7 C-1.66 5.68 -2.32 4.36 -3 3 C-4.65 3 -6.3 3 -8 3 C-7.57069449 5.42240798 -7.57069449 5.42240798 -6 8 C-4.0178628 9.23883575 -2.01958294 10.17904046 0.125 11.10546875 C2 12 2 12 4 14 C3.87022682 17.56876242 3.72179807 20.06767749 1.5 22.9375 C-2.2458101 24.52946929 -5.98678555 24.56909303 -10 24 C-10.99 23.34 -11.98 22.68 -13 22 C-12.67 20.35 -12.34 18.7 -12 17 C-11.01 17 -10.02 17 -9 17 C-8.34 18.32 -7.68 19.64 -7 21 C-5.35 21 -3.7 21 -2 21 C-1.67 19.35 -1.34 17.7 -1 16 C-1.62648438 15.66226562 -2.25296875 15.32453125 -2.8984375 14.9765625 C-3.71570313 14.53054688 -4.53296875 14.08453125 -5.375 13.625 C-6.59316406 12.96371094 -6.59316406 12.96371094 -7.8359375 12.2890625 C-10 11 -10 11 -12 9 C-11.8125 5.5 -11.8125 5.5 -11 2 C-6.94641576 -0.70238949 -4.81689896 -0.22937614 0 0 Z " fill="#E5E5EB" transform="translate(269,431)"/>
<path d="M0 0 C7 0 7 0 9.4375 1.375 C11.87746426 5.47413995 11.59290045 9.35436231 11 14 C10 17.125 10 17.125 8 19 C5.36 19 2.72 19 0 19 C0 12.73 0 6.46 0 0 Z " fill="#10044E" transform="translate(165,348)"/>
<path d="M0 0 C7.26 0 14.52 0 22 0 C22 1.98 22 3.96 22 6 C21.01 6.33 20.02 6.66 19 7 C19 5.68 19 4.36 19 3 C17.02 3 15.04 3 13 3 C13 9.6 13 16.2 13 23 C13.99 23 14.98 23 16 23 C16 23.66 16 24.32 16 25 C12.7 25 9.4 25 6 25 C6 24.34 6 23.68 6 23 C6.99 23 7.98 23 9 23 C9 16.4 9 9.8 9 3 C7.02 3 5.04 3 3 3 C3 4.32 3 5.64 3 7 C2.01 6.67 1.02 6.34 0 6 C0 4.02 0 2.04 0 0 Z " fill="#E7E7EC" transform="translate(298,345)"/>
<path d="M0 0 C6.93 0 13.86 0 21 0 C21 1.98 21 3.96 21 6 C20.01 6.33 19.02 6.66 18 7 C18 5.68 18 4.36 18 3 C16.02 3 14.04 3 12 3 C12 9.27 12 15.54 12 22 C12.99 22 13.98 22 15 22 C15 22.66 15 23.32 15 24 C11.7 24 8.4 24 5 24 C5 23.34 5 22.68 5 22 C5.99 22 6.98 22 8 22 C8 15.73 8 9.46 8 3 C6.02 3 4.04 3 2 3 C1.67 4.32 1.34 5.64 1 7 C0.67 6.67 0.34 6.34 0 6 C0 4.02 0 2.04 0 0 Z " fill="#E6E6EC" transform="translate(386,431)"/>
<path d="M0 0 C6.93 0 13.86 0 21 0 C21 1.98 21 3.96 21 6 C20.01 6.33 19.02 6.66 18 7 C18 5.68 18 4.36 18 3 C16.02 3 14.04 3 12 3 C12 9.27 12 15.54 12 22 C12.99 22 13.98 22 15 22 C15 22.66 15 23.32 15 24 C11.7 24 8.4 24 5 24 C5 23.34 5 22.68 5 22 C5.99 22 6.98 22 8 22 C8 15.73 8 9.46 8 3 C6.02 3 4.04 3 2 3 C1.67 4.32 1.34 5.64 1 7 C0.67 6.67 0.34 6.34 0 6 C0 4.02 0 2.04 0 0 Z " fill="#E6E6EC" transform="translate(317,431)"/>
<path d="M0 0 C0.7734375 -0.00515625 1.546875 -0.0103125 2.34375 -0.015625 C4.5 0.25 4.5 0.25 7.5 2.25 C7.17 3.9 6.84 5.55 6.5 7.25 C5.84 7.25 5.18 7.25 4.5 7.25 C3.84 6.26 3.18 5.27 2.5 4.25 C0.04290625 3.66649495 0.04290625 3.66649495 -2.5 4.25 C-5.2385687 6.61083508 -5.48386848 8.07255331 -5.8125 11.6875 C-5.64293066 15.59069423 -5.64293066 15.59069423 -3.5 20.25 C0.13 20.25 3.76 20.25 7.5 20.25 C6.5 23.25 6.5 23.25 4.5 24.25 C-4.19379015 25.17390453 -4.19379015 25.17390453 -8.0625 22.4375 C-11.16974155 17.70908895 -10.99822798 12.72176695 -10.5 7.25 C-8.27523058 2.16481276 -5.59374145 -0.03729161 0 0 Z " fill="#E9EAEE" transform="translate(198.5,430.75)"/>
<path d="M0 0 C2.97 0 5.94 0 9 0 C8.67 0.99 8.34 1.98 8 3 C7.34 3 6.68 3 6 3 C6 8.94 6 14.88 6 21 C8.64 21 11.28 21 14 21 C14 19.68 14 18.36 14 17 C14.66 17 15.32 17 16 17 C16 19.31 16 21.62 16 24 C10.39 24 4.78 24 -1 24 C-1 23.34 -1 22.68 -1 22 C-0.01 22 0.98 22 2 22 C2 15.73 2 9.46 2 3 C1.01 3 0.02 3 -1 3 C-0.67 2.01 -0.34 1.02 0 0 Z " fill="#EBEBEF" transform="translate(299,431)"/>
<path d="M0 0 C2.97 0 5.94 0 9 0 C8.67 0.99 8.34 1.98 8 3 C7.34 3 6.68 3 6 3 C6 8.94 6 14.88 6 21 C8.64 21 11.28 21 14 21 C14 19.68 14 18.36 14 17 C14.66 17 15.32 17 16 17 C16 19.31 16 21.62 16 24 C10.39 24 4.78 24 -1 24 C-1 23.34 -1 22.68 -1 22 C-0.01 22 0.98 22 2 22 C2 15.73 2 9.46 2 3 C1.01 3 0.02 3 -1 3 C-0.67 2.01 -0.34 1.02 0 0 Z " fill="#EBEBEF" transform="translate(160,431)"/>
<path d="M0 0 C3.3 0 6.6 0 10 0 C10 0.66 10 1.32 10 2 C8.68 2 7.36 2 6 2 C6 8.6 6 15.2 6 22 C8.64 22 11.28 22 14 22 C14 20.35 14 18.7 14 17 C14.66 17 15.32 17 16 17 C16 19.31 16 21.62 16 24 C10.72 24 5.44 24 0 24 C0 23.34 0 22.68 0 22 C0.66 22 1.32 22 2 22 C2 15.4 2 8.8 2 2 C1.34 2 0.68 2 0 2 C0 1.34 0 0.68 0 0 Z " fill="#F1F1F4" transform="translate(74,431)"/>
<path d="M0 0 C3.96 0 7.92 0 12 0 C12 0.33 12 0.66 12 1 C10.35 1 8.7 1 7 1 C7 7.93 7 14.86 7 22 C8.98 22 10.96 22 13 22 C12.67 22.66 12.34 23.32 12 24 C8.04 24 4.08 24 0 24 C0 23.34 0 22.68 0 22 C0.99 22 1.98 22 3 22 C3 15.4 3 8.8 3 2 C2.01 2 1.02 2 0 2 C0 1.34 0 0.68 0 0 Z " fill="#F6F7F7" transform="translate(158,346)"/>
<path d="M0 0 C0.99 0.33 1.98 0.66 3 1 C2.01 2.175625 2.01 2.175625 1 3.375 C-1.7844519 7.53681423 -1.88646555 12.16037729 -1 17 C0.21994459 19.3184472 0.21994459 19.3184472 2 21 C5.12586875 21.33397787 5.12586875 21.33397787 8 21 C7.67 21.99 7.34 22.98 7 24 C-0.36196319 24.49079755 -0.36196319 24.49079755 -3.4375 22.125 C-7.04169151 17.22329955 -6.59009675 11.90096754 -6 6 C-4.19196596 2.92634214 -3.13960536 1.56980268 0 0 Z " fill="#ECEDF0" transform="translate(215,431)"/>
<path d="M0 0 C0.99 0.66 1.98 1.32 3 2 C1.21824749 6.97167039 -0.57846489 11.93756796 -2.3894043 16.89868164 C-3.0036012 18.58792618 -3.61364729 20.27868584 -4.21948242 21.97094727 C-5.08992824 24.40008184 -5.97504929 26.82341556 -6.86328125 29.24609375 C-7.26659416 30.38672523 -7.26659416 30.38672523 -7.67805481 31.55039978 C-8.36510498 33.4015625 -9.17314193 35.20691688 -10 37 C-11.485 37.495 -11.485 37.495 -13 38 C-10.63799338 29.65935427 -7.75494383 21.52539209 -4.8125 13.375 C-4.34416219 12.07170039 -3.87606163 10.7683155 -3.40820312 9.46484375 C-2.27445598 6.30905273 -1.1383377 3.1541374 0 0 Z " fill="#E4E3EB" transform="translate(395,249)"/>
<path d="M0 0 C2.64 0 5.28 0 8 0 C7.67 0.99 7.34 1.98 7 3 C6.34 3 5.68 3 5 3 C4.79503906 3.75925781 4.59007812 4.51851563 4.37890625 5.30078125 C4.10949219 6.29464844 3.84007812 7.28851563 3.5625 8.3125 C3.29566406 9.29863281 3.02882812 10.28476562 2.75390625 11.30078125 C2.21920575 13.21517526 1.62855462 15.11433615 1 17 C-1.5625 18.1875 -1.5625 18.1875 -4 19 C-4 18.34 -4 17.68 -4 17 C-3.34 17 -2.68 17 -2 17 C-1.87882813 16.40832031 -1.75765625 15.81664062 -1.6328125 15.20703125 C-0.73255357 10.96196415 0.20456621 6.97560339 2 3 C1.34 3 0.68 3 0 3 C0 2.01 0 1.02 0 0 Z " fill="#D4D3DE" transform="translate(202,345)"/>
<path d="M0 0 C2.64 0 5.28 0 8 0 C7.67 0.99 7.34 1.98 7 3 C6.34 3 5.68 3 5 3 C5.03480469 3.98742187 5.06960938 4.97484375 5.10546875 5.9921875 C5.13253906 7.27351563 5.15960938 8.55484375 5.1875 9.875 C5.22230469 11.15117187 5.25710938 12.42734375 5.29296875 13.7421875 C5.19628906 14.81726563 5.09960938 15.89234375 5 17 C4.01 17.66 3.02 18.32 2 19 C2 13.72 2 8.44 2 3 C1.34 3 0.68 3 0 3 C0 2.01 0 1.02 0 0 Z " fill="#D9D8E2" transform="translate(289,431)"/>
<path d="M0 0 C6.875 0.875 6.875 0.875 8 2 C8.04063832 3.66617115 8.042721 5.33388095 8 7 C4.98968256 7.93423645 4.13349732 8.04449911 1 7 C-0.6875 5.4375 -0.6875 5.4375 -2 4 C-1.34 2.68 -0.68 1.36 0 0 Z " fill="#DDDDE5" transform="translate(250,392)"/>
<path d="M0 0 C3.3 0 6.6 0 10 0 C10 0.66 10 1.32 10 2 C9.34 2 8.68 2 8 2 C8.061875 3.423125 8.061875 3.423125 8.125 4.875 C8 8 8 8 6 10 C5.01 9.67 4.02 9.34 3 9 C3.33 6.69 3.66 4.38 4 2 C2.68 2 1.36 2 0 2 C0 1.34 0 0.68 0 0 Z " fill="#E4E4EA" transform="translate(124,444)"/>
<path d="M0 0 C0.99 0.33 1.98 0.66 3 1 C3.73046875 2.84765625 3.73046875 2.84765625 4.1875 5.0625 C4.34605469 5.79597656 4.50460937 6.52945312 4.66796875 7.28515625 C4.83232422 8.13400391 4.83232422 8.13400391 5 9 C2.36 9 -0.28 9 -3 9 C-2.25 2.25 -2.25 2.25 0 0 Z " fill="#D1D0DC" transform="translate(347,437)"/>
<path d="M0 0 C5.61 0 11.22 0 17 0 C17 1.98 17 3.96 17 6 C16.01 6.33 15.02 6.66 14 7 C14 5.68 14 4.36 14 3 C11.69 3 9.38 3 7 3 C7 5.64 7 8.28 7 11 C6.67 11 6.34 11 6 11 C6 8.03 6 5.06 6 2 C3.03 1.505 3.03 1.505 0 1 C0 0.67 0 0.34 0 0 Z " fill="#B1AEC5" transform="translate(93,431)"/>
<path d="M0 0 C0.33 0.66 0.66 1.32 1 2 C1.66 2 2.32 2 3 2 C3.66 5.3 4.32 8.6 5 12 C3.35 12 1.7 12 0 12 C-1.91384609 8.49128216 -2.04276246 7.18632214 -1.125 3.1875 C-0.75375 2.135625 -0.3825 1.08375 0 0 Z " fill="#CAC9D7" transform="translate(143,434)"/>
<path d="M0 0 C0.99 0.66 1.98 1.32 3 2 C2.07633369 4.65143047 1.13705596 7.29535493 0.1875 9.9375 C-0.07353516 10.69224609 -0.33457031 11.44699219 -0.60351562 12.22460938 C-1.31510087 14.18366505 -2.15061557 16.09663488 -3 18 C-3.99 18.33 -4.98 18.66 -6 19 C-4.12275039 12.62267685 -2.14328358 6.29304541 0 0 Z " fill="#DCDAE5" transform="translate(395,249)"/>
<path d="M0 0 C5.61 0 11.22 0 17 0 C17 2.31 17 4.62 17 7 C16.01 7 15.02 7 14 7 C14 5.68 14 4.36 14 3 C11.69 3 9.38 3 7 3 C7 2.67 7 2.34 7 2 C4.69 1.67 2.38 1.34 0 1 C0 0.67 0 0.34 0 0 Z " fill="#C2C0D1" transform="translate(327,345)"/>
<path d="M0 0 C2.31 0 4.62 0 7 0 C7 0.99 7 1.98 7 3 C5.68 3 4.36 3 3 3 C3 7.29 3 11.58 3 16 C2.34 15.67 1.68 15.34 1 15 C1.33 11.04 1.66 7.08 2 3 C1.34 3 0.68 3 0 3 C0 2.01 0 1.02 0 0 Z " fill="#BDBBCE" transform="translate(377,431)"/>
<path d="M0 0 C2.31 0 4.62 0 7 0 C7 0.99 7 1.98 7 3 C5.68 3 4.36 3 3 3 C3 7.29 3 11.58 3 16 C2.34 15.67 1.68 15.34 1 15 C1.33 11.04 1.66 7.08 2 3 C1.34 3 0.68 3 0 3 C0 2.01 0 1.02 0 0 Z " fill="#BDBBCE" transform="translate(247,431)"/>
<path d="M0 0 C0.33 0.66 0.66 1.32 1 2 C1.66 2.33 2.32 2.66 3 3 C2.67 3.99 2.34 4.98 2 6 C2.99 6.33 3.98 6.66 5 7 C4 8 4 8 2.15234375 8.09765625 C0.1015625 8.06510417 -1.94921875 8.03255208 -4 8 C-4 7.34 -4 6.68 -4 6 C-3.01 6 -2.02 6 -1 6 C-0.67 4.02 -0.34 2.04 0 0 Z " fill="#DFDFE6" transform="translate(139,447)"/>
<path d="M0 0 C2.33944736 0.28730055 4.6739143 0.61936779 7 1 C7 2.98 7 4.96 7 7 C6.01 7 5.02 7 4 7 C3.731875 6.38125 3.46375 5.7625 3.1875 5.125 C2.04443152 2.7004767 2.04443152 2.7004767 -1 1 C-0.67 0.67 -0.34 0.34 0 0 Z " fill="#E0DFE7" transform="translate(416,431)"/>
<path d="M0 0 C2.33944736 0.28730055 4.6739143 0.61936779 7 1 C7 2.98 7 4.96 7 7 C6.01 7 5.02 7 4 7 C3.731875 6.38125 3.46375 5.7625 3.1875 5.125 C2.04443152 2.7004767 2.04443152 2.7004767 -1 1 C-0.67 0.67 -0.34 0.34 0 0 Z " fill="#E0DFE7" transform="translate(264,431)"/>
<path d="M0 0 C0.99 0 1.98 0 3 0 C3.2475 0.61875 3.495 1.2375 3.75 1.875 C5.20628639 4.35068687 6.37812506 4.95125002 9 6 C8 7 8 7 5.0625 7.25 C4.051875 7.1675 3.04125 7.085 2 7 C0 4 0 4 0 0 Z " fill="#EAEBEF" transform="translate(246,405)"/>
<path d="M0 0 C2.62187494 1.04874998 3.79371361 1.64931313 5.25 4.125 C5.4975 4.74375 5.745 5.3625 6 6 C3.625 6.125 3.625 6.125 1 6 C0.34 5.34 -0.32 4.68 -1 4 C-0.625 1.875 -0.625 1.875 0 0 Z " fill="#2D2263" transform="translate(250,404)"/>
<path d="M0 0 C2.76223278 2.76223278 2.57856291 5.20706617 3 9 C1.35 9 -0.3 9 -2 9 C-1.34 6.03 -0.68 3.06 0 0 Z " fill="#382E6C" transform="translate(280,351)"/>
<path d="M0 0 C2.76223278 2.76223278 2.57856291 5.20706617 3 9 C1.35 9 -0.3 9 -2 9 C-1.34 6.03 -0.68 3.06 0 0 Z " fill="#382E6C" transform="translate(139,351)"/>
<path d="M0 0 C0.103125 0.639375 0.20625 1.27875 0.3125 1.9375 C0.539375 2.618125 0.76625 3.29875 1 4 C1.99 4.33 2.98 4.66 4 5 C3 6 3 6 1.15234375 6.09765625 C-0.8984375 6.06510417 -2.94921875 6.03255208 -5 6 C-5 5.34 -5 4.68 -5 4 C-4.01 4 -3.02 4 -2 4 C-2 3.01 -2 2.02 -2 1 C-1.34 0.67 -0.68 0.34 0 0 Z " fill="#EDEDF1" transform="translate(275,364)"/>
<path d="M0 0 C0.103125 0.639375 0.20625 1.27875 0.3125 1.9375 C0.539375 2.618125 0.76625 3.29875 1 4 C1.99 4.33 2.98 4.66 4 5 C3 6 3 6 1.15234375 6.09765625 C-0.8984375 6.06510417 -2.94921875 6.03255208 -5 6 C-5 5.34 -5 4.68 -5 4 C-4.01 4 -3.02 4 -2 4 C-2 3.01 -2 2.02 -2 1 C-1.34 0.67 -0.68 0.34 0 0 Z " fill="#EDEDF1" transform="translate(134,364)"/>
<path d="M0 0 C5.94 0 11.88 0 18 0 C18 0.33 18 0.66 18 1 C13.71 1 9.42 1 5 1 C5 1.66 5 2.32 5 3 C3.35 2.67 1.7 2.34 0 2 C0 1.34 0 0.68 0 0 Z " fill="#D7D5E1" transform="translate(388,232)"/>
<path d="M0 0 C0.93423645 3.01031744 1.04449911 3.86650268 0 7 C-2.5625 8.1875 -2.5625 8.1875 -5 9 C-5 8.34 -5 7.68 -5 7 C-4.34 7 -3.68 7 -3 7 C-2.87625 6.030625 -2.7525 5.06125 -2.625 4.0625 C-2.41875 3.051875 -2.2125 2.04125 -2 1 C-1.34 0.67 -0.68 0.34 0 0 Z " fill="#D1D0DC" transform="translate(203,355)"/>
<path d="M0 0 C0.33 0.99 0.66 1.98 1 3 C1.99 3 2.98 3 4 3 C4 3.66 4 4.32 4 5 C1.36 5 -1.28 5 -4 5 C-4 4.34 -4 3.68 -4 3 C-3.01 3 -2.02 3 -1 3 C-0.67 2.01 -0.34 1.02 0 0 Z " fill="#F3F4F5" transform="translate(343,450)"/>
<path d="M0 0 C2.5654594 2.5654594 2.54046087 4.47686668 3 8 C1.68 8 0.36 8 -1 8 C-0.67 5.36 -0.34 2.72 0 0 Z " fill="#2B2062" transform="translate(145,437)"/>
<path d="M0 0 C0.33 1.32 0.66 2.64 1 4 C2.32 4.33 3.64 4.66 5 5 C3.35 5 1.7 5 0 5 C0 5.66 0 6.32 0 7 C-0.66 7 -1.32 7 -2 7 C-2.125 4.625 -2.125 4.625 -2 2 C-1.34 1.34 -0.68 0.68 0 0 Z " fill="#EFEFF2" transform="translate(142,442)"/>
<path d="M0 0 C0.66 0 1.32 0 2 0 C2.33 2.31 2.66 4.62 3 7 C1.68 7 0.36 7 -1 7 C-0.67 4.69 -0.34 2.38 0 0 Z " fill="#251A5E" transform="translate(348,438)"/>
<path d="M0 0 C0.99 0.33 1.98 0.66 3 1 C2.67 2.65 2.34 4.3 2 6 C1.01 5.67 0.02 5.34 -1 5 C-0.67 3.35 -0.34 1.7 0 0 Z " fill="#281D5F" transform="translate(252,394)"/>
<path d="M0 0 C0 1.98 0 3.96 0 6 C-0.66 6 -1.32 6 -2 6 C-2 4.68 -2 3.36 -2 2 C-3.98 2 -5.96 2 -8 2 C-8 1.67 -8 1.34 -8 1 C-2.25 0 -2.25 0 0 0 Z " fill="#D9D8E2" transform="translate(406,432)"/>
<path d="M0 0 C0 1.98 0 3.96 0 6 C-0.66 6 -1.32 6 -2 6 C-2 4.68 -2 3.36 -2 2 C-3.98 2 -5.96 2 -8 2 C-8 1.67 -8 1.34 -8 1 C-2.25 0 -2.25 0 0 0 Z " fill="#D9D8E2" transform="translate(337,432)"/>
<path d="M0 0 C1.65 0 3.3 0 5 0 C5 0.66 5 1.32 5 2 C4.01 2.33 3.02 2.66 2 3 C1.34 3.66 0.68 4.32 0 5 C-0.66 4.67 -1.32 4.34 -2 4 C-1.34 2.68 -0.68 1.36 0 0 Z " fill="#D0CFDB" transform="translate(250,392)"/>
<path d="M0 0 C0.625 1.8125 0.625 1.8125 1 4 C0.01 5.485 0.01 5.485 -1 7 C-1.66 7 -2.32 7 -3 7 C-2.625 4.0625 -2.625 4.0625 -2 1 C-1.34 0.67 -0.68 0.34 0 0 Z " fill="#E1E0E8" transform="translate(205,349)"/>
</svg>
