<svg xmlns="http://www.w3.org/2000/svg" xmlns:xlink="http://www.w3.org/1999/xlink" width="500" zoomAndPan="magnify" viewBox="0 0 375 374.999991" height="500" preserveAspectRatio="xMidYMid meet" version="1.2"><defs><clipPath id="e788c7b5c4"><path d="M 0 10.234375 L 375 10.234375 L 375 319.429688 L 0 319.429688 Z M 0 10.234375 "/></clipPath><clipPath id="5d4822e4a9"><path d="M 290.632812 101 L 357 101 L 357 168.410156 L 290.632812 168.410156 Z M 290.632812 101 "/></clipPath><clipPath id="c5c463ae42"><path d="M 309 114.089844 L 338.585938 114.089844 L 338.585938 154.988281 L 309 154.988281 Z M 309 114.089844 "/></clipPath><clipPath id="fefaef6419"><path d="M 308.933594 114.089844 L 338.585938 114.089844 L 338.585938 154.988281 L 308.933594 154.988281 Z M 308.933594 114.089844 "/></clipPath></defs><g id="3134217acf"><rect x="0" width="375" y="0" height="374.999991" style="fill:#ffffff;fill-opacity:1;stroke:none;"/><rect x="0" width="375" y="0" height="374.999991" style="fill:#ffffff;fill-opacity:1;stroke:none;"/><g clip-rule="nonzero" clip-path="url(#e788c7b5c4)"><path style=" stroke:none;fill-rule:nonzero;fill:#0d004c;fill-opacity:1;" d="M 0 10.234375 L 374.414062 10.234375 L 374.414062 319.429688 L 0 319.429688 Z M 0 10.234375 "/></g><g style="fill:#0d004c;fill-opacity:1;"><g transform="translate(34.832031, 354.699997)"><path style="stroke:none" d="M 13.796875 0 L 8.421875 0 L 8.421875 -0.1875 C 8.421875 -1.03125 8.757812 -1.484375 9.4375 -1.546875 L 10.09375 -1.59375 L 10.125 -1.59375 L 9.203125 -4.921875 L 5.0625 -4.921875 L 4.09375 -1.640625 L 5.953125 -1.5 C 6.003906 -1.40625 6 -1.195312 5.9375 -0.875 C 5.800781 -0.289062 5.460938 0 4.921875 0 L 0.296875 0 L 0.296875 -0.1875 C 0.296875 -1.03125 0.632812 -1.484375 1.3125 -1.546875 L 2.15625 -1.59375 L 6.578125 -15.75 C 7.234375 -15.8125 8.007812 -15.8125 8.90625 -15.75 L 13.21875 -1.640625 L 14.828125 -1.5 C 14.878906 -1.40625 14.875 -1.195312 14.8125 -0.875 C 14.675781 -0.289062 14.335938 0 13.796875 0 Z M 5.5 -6.46875 L 8.78125 -6.46875 L 7.203125 -12.28125 Z M 5.5 -6.46875 "/></g></g><g style="fill:#0d004c;fill-opacity:1;"><g transform="translate(50.006919, 354.699997)"><path style="stroke:none" d="M 2.140625 -15.75 L 7.515625 -15.75 C 12.890625 -15.75 15.578125 -13.148438 15.578125 -7.953125 C 15.578125 -5.378906 14.878906 -3.410156 13.484375 -2.046875 C 12.085938 -0.679688 10.140625 0 7.640625 0 L 0.9375 0 C 0.894531 -0.363281 0.9375 -0.695312 1.0625 -1 C 1.195312 -1.3125 1.425781 -1.484375 1.75 -1.515625 L 2.578125 -1.609375 L 2.578125 -14.125 L 2.546875 -14.125 L 0.9375 -14.265625 C 0.925781 -14.796875 1.003906 -15.175781 1.171875 -15.40625 C 1.335938 -15.632812 1.660156 -15.75 2.140625 -15.75 Z M 6.953125 -1.59375 C 8.921875 -1.46875 10.347656 -1.898438 11.234375 -2.890625 C 12.128906 -3.890625 12.578125 -5.539062 12.578125 -7.84375 C 12.578125 -10.15625 12.117188 -11.804688 11.203125 -12.796875 C 10.296875 -13.785156 8.804688 -14.242188 6.734375 -14.171875 L 5.453125 -14.125 L 5.453125 -1.671875 Z M 6.953125 -1.59375 "/></g></g><g style="fill:#0d004c;fill-opacity:1;"><g transform="translate(66.377405, 354.699997)"><path style="stroke:none" d="M 10.484375 -15.75 L 14.828125 -15.75 C 14.828125 -15.75 14.828125 -15.691406 14.828125 -15.578125 C 14.828125 -14.734375 14.492188 -14.28125 13.828125 -14.21875 L 13.265625 -14.171875 L 8.421875 0 L 6.09375 0 L 1.5 -14.125 L 0.015625 -14.265625 C -0.0234375 -14.347656 -0.015625 -14.550781 0.046875 -14.875 C 0.179688 -15.457031 0.519531 -15.75 1.0625 -15.75 L 6.34375 -15.75 C 6.3125 -15.15625 6.242188 -14.789062 6.140625 -14.65625 C 5.941406 -14.394531 5.675781 -14.25 5.34375 -14.21875 L 4.640625 -14.171875 L 7.8125 -3.515625 L 11.265625 -14.125 L 9.453125 -14.265625 C 9.410156 -14.347656 9.414062 -14.550781 9.46875 -14.875 C 9.613281 -15.457031 9.953125 -15.75 10.484375 -15.75 Z M 10.484375 -15.75 "/></g></g><g style="fill:#0d004c;fill-opacity:1;"><g transform="translate(81.230404, 354.699997)"><path style="stroke:none" d="M 7.90625 -14.265625 C 5.164062 -14.265625 3.796875 -12.171875 3.796875 -7.984375 C 3.796875 -5.878906 4.132812 -4.273438 4.8125 -3.171875 C 5.5 -2.066406 6.5 -1.507812 7.8125 -1.5 C 9.207031 -1.507812 10.257812 -2.046875 10.96875 -3.109375 C 11.6875 -4.179688 12.046875 -5.757812 12.046875 -7.84375 C 12.046875 -9.925781 11.695312 -11.515625 11 -12.609375 C 10.300781 -13.710938 9.269531 -14.265625 7.90625 -14.265625 Z M 0.8125 -7.78125 C 0.8125 -10.363281 1.46875 -12.394531 2.78125 -13.875 C 4.101562 -15.351562 5.882812 -16.09375 8.125 -16.09375 C 10.363281 -16.09375 12.078125 -15.382812 13.265625 -13.96875 C 14.453125 -12.550781 15.046875 -10.550781 15.046875 -7.96875 C 15.046875 -5.382812 14.378906 -3.351562 13.046875 -1.875 C 11.722656 -0.394531 9.941406 0.34375 7.703125 0.34375 C 5.460938 0.34375 3.753906 -0.363281 2.578125 -1.78125 C 1.398438 -3.195312 0.8125 -5.195312 0.8125 -7.78125 Z M 0.8125 -7.78125 "/></g></g><g style="fill:#0d004c;fill-opacity:1;"><g transform="translate(97.072071, 354.699997)"><path style="stroke:none" d="M 8.515625 -16.09375 C 9.847656 -16.09375 10.929688 -15.796875 11.765625 -15.203125 C 12.597656 -14.617188 13.015625 -13.914062 13.015625 -13.09375 C 13.015625 -12.476562 12.804688 -12 12.390625 -11.65625 C 11.984375 -11.320312 11.425781 -11.15625 10.71875 -11.15625 C 10.71875 -13.132812 9.890625 -14.125 8.234375 -14.125 C 6.828125 -14.125 5.734375 -13.550781 4.953125 -12.40625 C 4.179688 -11.257812 3.796875 -9.707031 3.796875 -7.75 C 3.796875 -5.800781 4.171875 -4.304688 4.921875 -3.265625 C 5.671875 -2.222656 6.859375 -1.703125 8.484375 -1.703125 C 10.109375 -1.703125 11.539062 -2.171875 12.78125 -3.109375 C 13.03125 -2.953125 13.15625 -2.707031 13.15625 -2.375 C 13.15625 -1.738281 12.609375 -1.125 11.515625 -0.53125 C 10.429688 0.0507812 9.15625 0.34375 7.6875 0.34375 C 5.414062 0.34375 3.703125 -0.351562 2.546875 -1.75 C 1.390625 -3.15625 0.8125 -5.128906 0.8125 -7.671875 C 0.8125 -10.222656 1.460938 -12.265625 2.765625 -13.796875 C 4.078125 -15.328125 5.992188 -16.09375 8.515625 -16.09375 Z M 8.515625 -16.09375 "/></g></g><g style="fill:#0d004c;fill-opacity:1;"><g transform="translate(110.913401, 354.699997)"><path style="stroke:none" d="M 13.796875 0 L 8.421875 0 L 8.421875 -0.1875 C 8.421875 -1.03125 8.757812 -1.484375 9.4375 -1.546875 L 10.09375 -1.59375 L 10.125 -1.59375 L 9.203125 -4.921875 L 5.0625 -4.921875 L 4.09375 -1.640625 L 5.953125 -1.5 C 6.003906 -1.40625 6 -1.195312 5.9375 -0.875 C 5.800781 -0.289062 5.460938 0 4.921875 0 L 0.296875 0 L 0.296875 -0.1875 C 0.296875 -1.03125 0.632812 -1.484375 1.3125 -1.546875 L 2.15625 -1.59375 L 6.578125 -15.75 C 7.234375 -15.8125 8.007812 -15.8125 8.90625 -15.75 L 13.21875 -1.640625 L 14.828125 -1.5 C 14.878906 -1.40625 14.875 -1.195312 14.8125 -0.875 C 14.675781 -0.289062 14.335938 0 13.796875 0 Z M 5.5 -6.46875 L 8.78125 -6.46875 L 7.203125 -12.28125 Z M 5.5 -6.46875 "/></g></g><g style="fill:#0d004c;fill-opacity:1;"><g transform="translate(126.088289, 354.699997)"><path style="stroke:none" d="M 0.453125 -15.75 L 14.171875 -15.75 L 14.171875 -12.515625 C 14.171875 -12.191406 14.066406 -11.945312 13.859375 -11.78125 C 13.660156 -11.625 13.484375 -11.535156 13.328125 -11.515625 C 13.179688 -11.503906 12.972656 -11.5 12.703125 -11.5 L 12.46875 -14.03125 L 8.734375 -14.03125 L 8.734375 -1.640625 L 10.625 -1.5 C 10.71875 -0.5 10.375 0 9.59375 0 L 3.953125 0 C 3.953125 0 3.953125 -0.0625 3.953125 -0.1875 C 3.953125 -1.03125 4.289062 -1.484375 4.96875 -1.546875 L 5.859375 -1.59375 L 5.859375 -14.03125 L 2.15625 -14.03125 L 1.9375 -11.5 C 1.65625 -11.5 1.4375 -11.503906 1.28125 -11.515625 C 1.132812 -11.535156 0.957031 -11.625 0.75 -11.78125 C 0.550781 -11.945312 0.453125 -12.191406 0.453125 -12.515625 Z M 0.453125 -15.75 "/></g></g><g style="fill:#0d004c;fill-opacity:1;"><g transform="translate(140.711366, 354.699997)"><path style="stroke:none" d="M 12.484375 -3.75 L 12.484375 0 L 0.921875 0 C 0.921875 -0.976562 1.257812 -1.492188 1.9375 -1.546875 L 2.59375 -1.59375 L 2.59375 -14.125 L 0.9375 -14.265625 C 0.894531 -14.347656 0.90625 -14.550781 0.96875 -14.875 C 1.101562 -15.457031 1.441406 -15.75 1.984375 -15.75 L 12.046875 -15.75 L 12.046875 -12.28125 C 12.046875 -11.59375 11.554688 -11.296875 10.578125 -11.390625 L 10.375 -14.09375 L 5.46875 -14.171875 L 5.46875 -8.46875 L 9.59375 -8.953125 C 9.757812 -8.210938 9.765625 -7.453125 9.609375 -6.671875 L 5.46875 -6.90625 L 5.46875 -1.640625 L 10.828125 -1.8125 L 11.015625 -4.640625 C 11.992188 -4.734375 12.484375 -4.4375 12.484375 -3.75 Z M 12.484375 -3.75 "/></g></g><g style="fill:#0d004c;fill-opacity:1;"><g transform="translate(153.88593, 354.699997)"><path style="stroke:none" d="M 10.21875 -14.953125 C 10.65625 -14.503906 10.875 -13.953125 10.875 -13.296875 C 10.875 -12.640625 10.675781 -12.140625 10.28125 -11.796875 C 9.882812 -11.460938 9.367188 -11.34375 8.734375 -11.4375 C 8.734375 -13.382812 7.882812 -14.359375 6.1875 -14.359375 C 5.4375 -14.359375 4.828125 -14.179688 4.359375 -13.828125 C 3.890625 -13.484375 3.65625 -13.015625 3.65625 -12.421875 C 3.65625 -11.960938 3.757812 -11.617188 3.96875 -11.390625 C 4.1875 -11.171875 4.347656 -11.007812 4.453125 -10.90625 C 4.566406 -10.8125 4.769531 -10.679688 5.0625 -10.515625 C 5.363281 -10.359375 5.578125 -10.25 5.703125 -10.1875 C 5.835938 -10.125 6.109375 -10.003906 6.515625 -9.828125 C 6.921875 -9.648438 7.195312 -9.53125 7.34375 -9.46875 C 8.90625 -8.78125 10.003906 -8.125 10.640625 -7.5 C 11.273438 -6.875 11.59375 -6 11.59375 -4.875 C 11.59375 -3.320312 11.046875 -2.0625 9.953125 -1.09375 C 8.867188 -0.132812 7.398438 0.34375 5.546875 0.34375 C 3.671875 0.34375 2.265625 -0.078125 1.328125 -0.921875 C 0.828125 -1.398438 0.578125 -1.957031 0.578125 -2.59375 C 0.578125 -3.226562 0.78125 -3.726562 1.1875 -4.09375 C 1.59375 -4.457031 2.203125 -4.640625 3.015625 -4.640625 C 3.015625 -3.523438 3.25 -2.707031 3.71875 -2.1875 C 4.1875 -1.664062 4.925781 -1.40625 5.9375 -1.40625 C 6.945312 -1.40625 7.742188 -1.640625 8.328125 -2.109375 C 8.910156 -2.578125 9.203125 -3.160156 9.203125 -3.859375 C 9.203125 -4.566406 8.925781 -5.132812 8.375 -5.5625 C 7.820312 -5.988281 7.082031 -6.398438 6.15625 -6.796875 C 5.238281 -7.203125 4.632812 -7.46875 4.34375 -7.59375 C 4.050781 -7.726562 3.664062 -7.941406 3.1875 -8.234375 C 2.71875 -8.535156 2.375 -8.828125 2.15625 -9.109375 C 1.5625 -9.847656 1.265625 -10.691406 1.265625 -11.640625 C 1.265625 -13.097656 1.800781 -14.203125 2.875 -14.953125 C 3.945312 -15.710938 5.238281 -16.09375 6.75 -16.09375 C 8.269531 -16.09375 9.425781 -15.710938 10.21875 -14.953125 Z M 10.21875 -14.953125 "/></g></g><g style="fill:#0d004c;fill-opacity:1;"><g transform="translate(166.1408, 354.699997)"><path style="stroke:none" d=""/></g></g><g style="fill:#0d004c;fill-opacity:1;"><g transform="translate(172.302722, 354.699997)"><path style="stroke:none" d="M 14.828125 -1.90625 C 15.140625 -1.90625 15.460938 -1.96875 15.796875 -2.09375 C 16.140625 -2.21875 16.367188 -2.367188 16.484375 -2.546875 C 16.703125 -2.367188 16.8125 -2.039062 16.8125 -1.5625 C 16.8125 -1.082031 16.617188 -0.632812 16.234375 -0.21875 C 15.847656 0.1875 15.273438 0.390625 14.515625 0.390625 C 13.359375 0.390625 12.03125 -0.113281 10.53125 -1.125 C 9.25 -0.101562 7.738281 0.40625 6 0.40625 C 4.269531 0.40625 2.972656 0.0351562 2.109375 -0.703125 C 1.242188 -1.441406 0.8125 -2.40625 0.8125 -3.59375 C 0.8125 -5.414062 1.753906 -6.835938 3.640625 -7.859375 C 2.515625 -9.347656 1.953125 -10.625 1.953125 -11.6875 C 1.953125 -12.757812 2.335938 -13.664062 3.109375 -14.40625 C 3.890625 -15.15625 4.90625 -15.53125 6.15625 -15.53125 C 7.414062 -15.53125 8.394531 -15.234375 9.09375 -14.640625 C 9.789062 -14.046875 10.140625 -13.234375 10.140625 -12.203125 C 10.140625 -11.179688 9.820312 -10.300781 9.1875 -9.5625 C 8.550781 -8.832031 7.757812 -8.296875 6.8125 -7.953125 L 6.953125 -7.796875 C 8.191406 -6.304688 9.476562 -5.019531 10.8125 -3.9375 C 11.207031 -4.550781 11.53125 -5.28125 11.78125 -6.125 L 10.265625 -6.234375 C 10.171875 -7.210938 10.488281 -7.703125 11.21875 -7.703125 L 15.1875 -7.703125 L 15.1875 -7.5 C 15.1875 -6.6875 14.894531 -6.253906 14.3125 -6.203125 L 13.546875 -6.15625 C 13.210938 -4.914062 12.753906 -3.84375 12.171875 -2.9375 C 13.242188 -2.25 14.128906 -1.90625 14.828125 -1.90625 Z M 7.703125 -12.1875 C 7.703125 -12.863281 7.554688 -13.359375 7.265625 -13.671875 C 6.972656 -13.984375 6.613281 -14.140625 6.1875 -14.140625 C 5.757812 -14.140625 5.375 -13.960938 5.03125 -13.609375 C 4.695312 -13.265625 4.53125 -12.804688 4.53125 -12.234375 C 4.53125 -11.390625 5.019531 -10.3125 6 -9 C 7.132812 -9.6875 7.703125 -10.75 7.703125 -12.1875 Z M 9.078125 -2.234375 C 7.835938 -3.242188 6.34375 -4.726562 4.59375 -6.6875 C 3.832031 -5.957031 3.453125 -5.140625 3.453125 -4.234375 C 3.453125 -3.335938 3.726562 -2.660156 4.28125 -2.203125 C 4.832031 -1.742188 5.582031 -1.515625 6.53125 -1.515625 C 7.476562 -1.515625 8.328125 -1.753906 9.078125 -2.234375 Z M 9.078125 -2.234375 "/></g></g><g style="fill:#0d004c;fill-opacity:1;"><g transform="translate(189.40896, 354.699997)"><path style="stroke:none" d=""/></g></g><g style="fill:#0d004c;fill-opacity:1;"><g transform="translate(195.570882, 354.699997)"><path style="stroke:none" d="M 8.515625 -16.09375 C 9.847656 -16.09375 10.929688 -15.796875 11.765625 -15.203125 C 12.597656 -14.617188 13.015625 -13.914062 13.015625 -13.09375 C 13.015625 -12.476562 12.804688 -12 12.390625 -11.65625 C 11.984375 -11.320312 11.425781 -11.15625 10.71875 -11.15625 C 10.71875 -13.132812 9.890625 -14.125 8.234375 -14.125 C 6.828125 -14.125 5.734375 -13.550781 4.953125 -12.40625 C 4.179688 -11.257812 3.796875 -9.707031 3.796875 -7.75 C 3.796875 -5.800781 4.171875 -4.304688 4.921875 -3.265625 C 5.671875 -2.222656 6.859375 -1.703125 8.484375 -1.703125 C 10.109375 -1.703125 11.539062 -2.171875 12.78125 -3.109375 C 13.03125 -2.953125 13.15625 -2.707031 13.15625 -2.375 C 13.15625 -1.738281 12.609375 -1.125 11.515625 -0.53125 C 10.429688 0.0507812 9.15625 0.34375 7.6875 0.34375 C 5.414062 0.34375 3.703125 -0.351562 2.546875 -1.75 C 1.390625 -3.15625 0.8125 -5.128906 0.8125 -7.671875 C 0.8125 -10.222656 1.460938 -12.265625 2.765625 -13.796875 C 4.078125 -15.328125 5.992188 -16.09375 8.515625 -16.09375 Z M 8.515625 -16.09375 "/></g></g><g style="fill:#0d004c;fill-opacity:1;"><g transform="translate(209.412213, 354.699997)"><path style="stroke:none" d="M 7.90625 -14.265625 C 5.164062 -14.265625 3.796875 -12.171875 3.796875 -7.984375 C 3.796875 -5.878906 4.132812 -4.273438 4.8125 -3.171875 C 5.5 -2.066406 6.5 -1.507812 7.8125 -1.5 C 9.207031 -1.507812 10.257812 -2.046875 10.96875 -3.109375 C 11.6875 -4.179688 12.046875 -5.757812 12.046875 -7.84375 C 12.046875 -9.925781 11.695312 -11.515625 11 -12.609375 C 10.300781 -13.710938 9.269531 -14.265625 7.90625 -14.265625 Z M 0.8125 -7.78125 C 0.8125 -10.363281 1.46875 -12.394531 2.78125 -13.875 C 4.101562 -15.351562 5.882812 -16.09375 8.125 -16.09375 C 10.363281 -16.09375 12.078125 -15.382812 13.265625 -13.96875 C 14.453125 -12.550781 15.046875 -10.550781 15.046875 -7.96875 C 15.046875 -5.382812 14.378906 -3.351562 13.046875 -1.875 C 11.722656 -0.394531 9.941406 0.34375 7.703125 0.34375 C 5.460938 0.34375 3.753906 -0.363281 2.578125 -1.78125 C 1.398438 -3.195312 0.8125 -5.195312 0.8125 -7.78125 Z M 0.8125 -7.78125 "/></g></g><g style="fill:#0d004c;fill-opacity:1;"><g transform="translate(225.253879, 354.699997)"><path style="stroke:none" d="M 11.5625 -15.75 L 15.578125 -15.75 C 15.578125 -15.75 15.578125 -15.691406 15.578125 -15.578125 C 15.578125 -14.734375 15.238281 -14.28125 14.5625 -14.21875 L 13.890625 -14.171875 L 13.890625 -0.296875 C 13.429688 -0.0859375 12.84375 0.015625 12.125 0.015625 L 4.328125 -11.640625 L 4.328125 -1.640625 L 5.984375 -1.5 C 6.078125 -0.5 5.726562 0 4.9375 0 L 0.921875 0 L 0.921875 -0.1875 C 0.921875 -1.03125 1.257812 -1.484375 1.9375 -1.546875 L 2.59375 -1.59375 L 2.59375 -14.125 L 0.9375 -14.265625 C 0.894531 -14.347656 0.90625 -14.550781 0.96875 -14.875 C 1.101562 -15.457031 1.441406 -15.75 1.984375 -15.75 L 4.984375 -15.75 L 12.171875 -5.0625 L 12.171875 -14.125 L 10.53125 -14.265625 C 10.4375 -15.253906 10.78125 -15.75 11.5625 -15.75 Z M 11.5625 -15.75 "/></g></g><g style="fill:#0d004c;fill-opacity:1;"><g transform="translate(241.210513, 354.699997)"><path style="stroke:none" d="M 10.21875 -14.953125 C 10.65625 -14.503906 10.875 -13.953125 10.875 -13.296875 C 10.875 -12.640625 10.675781 -12.140625 10.28125 -11.796875 C 9.882812 -11.460938 9.367188 -11.34375 8.734375 -11.4375 C 8.734375 -13.382812 7.882812 -14.359375 6.1875 -14.359375 C 5.4375 -14.359375 4.828125 -14.179688 4.359375 -13.828125 C 3.890625 -13.484375 3.65625 -13.015625 3.65625 -12.421875 C 3.65625 -11.960938 3.757812 -11.617188 3.96875 -11.390625 C 4.1875 -11.171875 4.347656 -11.007812 4.453125 -10.90625 C 4.566406 -10.8125 4.769531 -10.679688 5.0625 -10.515625 C 5.363281 -10.359375 5.578125 -10.25 5.703125 -10.1875 C 5.835938 -10.125 6.109375 -10.003906 6.515625 -9.828125 C 6.921875 -9.648438 7.195312 -9.53125 7.34375 -9.46875 C 8.90625 -8.78125 10.003906 -8.125 10.640625 -7.5 C 11.273438 -6.875 11.59375 -6 11.59375 -4.875 C 11.59375 -3.320312 11.046875 -2.0625 9.953125 -1.09375 C 8.867188 -0.132812 7.398438 0.34375 5.546875 0.34375 C 3.671875 0.34375 2.265625 -0.078125 1.328125 -0.921875 C 0.828125 -1.398438 0.578125 -1.957031 0.578125 -2.59375 C 0.578125 -3.226562 0.78125 -3.726562 1.1875 -4.09375 C 1.59375 -4.457031 2.203125 -4.640625 3.015625 -4.640625 C 3.015625 -3.523438 3.25 -2.707031 3.71875 -2.1875 C 4.1875 -1.664062 4.925781 -1.40625 5.9375 -1.40625 C 6.945312 -1.40625 7.742188 -1.640625 8.328125 -2.109375 C 8.910156 -2.578125 9.203125 -3.160156 9.203125 -3.859375 C 9.203125 -4.566406 8.925781 -5.132812 8.375 -5.5625 C 7.820312 -5.988281 7.082031 -6.398438 6.15625 -6.796875 C 5.238281 -7.203125 4.632812 -7.46875 4.34375 -7.59375 C 4.050781 -7.726562 3.664062 -7.941406 3.1875 -8.234375 C 2.71875 -8.535156 2.375 -8.828125 2.15625 -9.109375 C 1.5625 -9.847656 1.265625 -10.691406 1.265625 -11.640625 C 1.265625 -13.097656 1.800781 -14.203125 2.875 -14.953125 C 3.945312 -15.710938 5.238281 -16.09375 6.75 -16.09375 C 8.269531 -16.09375 9.425781 -15.710938 10.21875 -14.953125 Z M 10.21875 -14.953125 "/></g></g><g style="fill:#0d004c;fill-opacity:1;"><g transform="translate(253.465372, 354.699997)"><path style="stroke:none" d="M 11.015625 -15.75 L 15.15625 -15.75 C 15.15625 -15.75 15.15625 -15.691406 15.15625 -15.578125 C 15.15625 -14.734375 14.816406 -14.28125 14.140625 -14.21875 L 13.484375 -14.171875 L 13.484375 -6.671875 C 13.484375 -4.242188 12.992188 -2.46875 12.015625 -1.34375 C 11.046875 -0.21875 9.609375 0.34375 7.703125 0.34375 C 5.804688 0.34375 4.363281 -0.1875 3.375 -1.25 C 2.394531 -2.320312 1.90625 -4.132812 1.90625 -6.6875 L 1.90625 -14.125 L 0.25 -14.265625 C 0.207031 -14.347656 0.21875 -14.550781 0.28125 -14.875 C 0.414062 -15.457031 0.75 -15.75 1.28125 -15.75 L 6.46875 -15.75 L 6.46875 -15.578125 C 6.46875 -14.734375 6.128906 -14.28125 5.453125 -14.21875 L 4.78125 -14.171875 L 4.78125 -6.328125 C 4.78125 -4.640625 5.015625 -3.410156 5.484375 -2.640625 C 5.960938 -1.878906 6.800781 -1.5 8 -1.5 C 10.425781 -1.5 11.640625 -3.015625 11.640625 -6.046875 L 11.609375 -14.125 L 9.984375 -14.265625 C 9.890625 -15.253906 10.234375 -15.75 11.015625 -15.75 Z M 11.015625 -15.75 "/></g></g><g style="fill:#0d004c;fill-opacity:1;"><g transform="translate(268.847192, 354.699997)"><path style="stroke:none" d="M 12.28125 -4.078125 L 12.28125 0 L 0.921875 0 L 0.921875 -0.1875 C 0.921875 -1.03125 1.257812 -1.484375 1.9375 -1.546875 L 2.59375 -1.59375 L 2.59375 -14.125 L 0.984375 -14.265625 C 0.941406 -14.347656 0.953125 -14.550781 1.015625 -14.875 C 1.148438 -15.457031 1.488281 -15.75 2.03125 -15.75 L 7.65625 -15.75 L 7.65625 -15.546875 C 7.65625 -14.953125 7.476562 -14.546875 7.125 -14.328125 C 6.988281 -14.253906 6.828125 -14.21875 6.640625 -14.21875 L 5.515625 -14.171875 L 5.46875 -14.171875 L 5.46875 -1.640625 L 10.4375 -1.796875 L 10.8125 -4.96875 C 11.789062 -5.0625 12.28125 -4.765625 12.28125 -4.078125 Z M 12.28125 -4.078125 "/></g></g><g style="fill:#0d004c;fill-opacity:1;"><g transform="translate(281.699844, 354.699997)"><path style="stroke:none" d="M 0.453125 -15.75 L 14.171875 -15.75 L 14.171875 -12.515625 C 14.171875 -12.191406 14.066406 -11.945312 13.859375 -11.78125 C 13.660156 -11.625 13.484375 -11.535156 13.328125 -11.515625 C 13.179688 -11.503906 12.972656 -11.5 12.703125 -11.5 L 12.46875 -14.03125 L 8.734375 -14.03125 L 8.734375 -1.640625 L 10.625 -1.5 C 10.71875 -0.5 10.375 0 9.59375 0 L 3.953125 0 C 3.953125 0 3.953125 -0.0625 3.953125 -0.1875 C 3.953125 -1.03125 4.289062 -1.484375 4.96875 -1.546875 L 5.859375 -1.59375 L 5.859375 -14.03125 L 2.15625 -14.03125 L 1.9375 -11.5 C 1.65625 -11.5 1.4375 -11.503906 1.28125 -11.515625 C 1.132812 -11.535156 0.957031 -11.625 0.75 -11.78125 C 0.550781 -11.945312 0.453125 -12.191406 0.453125 -12.515625 Z M 0.453125 -15.75 "/></g></g><g style="fill:#0d004c;fill-opacity:1;"><g transform="translate(296.322921, 354.699997)"><path style="stroke:none" d="M 13.796875 0 L 8.421875 0 L 8.421875 -0.1875 C 8.421875 -1.03125 8.757812 -1.484375 9.4375 -1.546875 L 10.09375 -1.59375 L 10.125 -1.59375 L 9.203125 -4.921875 L 5.0625 -4.921875 L 4.09375 -1.640625 L 5.953125 -1.5 C 6.003906 -1.40625 6 -1.195312 5.9375 -0.875 C 5.800781 -0.289062 5.460938 0 4.921875 0 L 0.296875 0 L 0.296875 -0.1875 C 0.296875 -1.03125 0.632812 -1.484375 1.3125 -1.546875 L 2.15625 -1.59375 L 6.578125 -15.75 C 7.234375 -15.8125 8.007812 -15.8125 8.90625 -15.75 L 13.21875 -1.640625 L 14.828125 -1.5 C 14.878906 -1.40625 14.875 -1.195312 14.8125 -0.875 C 14.675781 -0.289062 14.335938 0 13.796875 0 Z M 5.5 -6.46875 L 8.78125 -6.46875 L 7.203125 -12.28125 Z M 5.5 -6.46875 "/></g></g><g style="fill:#0d004c;fill-opacity:1;"><g transform="translate(311.497831, 354.699997)"><path style="stroke:none" d="M 11.5625 -15.75 L 15.578125 -15.75 C 15.578125 -15.75 15.578125 -15.691406 15.578125 -15.578125 C 15.578125 -14.734375 15.238281 -14.28125 14.5625 -14.21875 L 13.890625 -14.171875 L 13.890625 -0.296875 C 13.429688 -0.0859375 12.84375 0.015625 12.125 0.015625 L 4.328125 -11.640625 L 4.328125 -1.640625 L 5.984375 -1.5 C 6.078125 -0.5 5.726562 0 4.9375 0 L 0.921875 0 L 0.921875 -0.1875 C 0.921875 -1.03125 1.257812 -1.484375 1.9375 -1.546875 L 2.59375 -1.59375 L 2.59375 -14.125 L 0.9375 -14.265625 C 0.894531 -14.347656 0.90625 -14.550781 0.96875 -14.875 C 1.101562 -15.457031 1.441406 -15.75 1.984375 -15.75 L 4.984375 -15.75 L 12.171875 -5.0625 L 12.171875 -14.125 L 10.53125 -14.265625 C 10.4375 -15.253906 10.78125 -15.75 11.5625 -15.75 Z M 11.5625 -15.75 "/></g></g><g style="fill:#0d004c;fill-opacity:1;"><g transform="translate(327.454442, 354.699997)"><path style="stroke:none" d="M 0.453125 -15.75 L 14.171875 -15.75 L 14.171875 -12.515625 C 14.171875 -12.191406 14.066406 -11.945312 13.859375 -11.78125 C 13.660156 -11.625 13.484375 -11.535156 13.328125 -11.515625 C 13.179688 -11.503906 12.972656 -11.5 12.703125 -11.5 L 12.46875 -14.03125 L 8.734375 -14.03125 L 8.734375 -1.640625 L 10.625 -1.5 C 10.71875 -0.5 10.375 0 9.59375 0 L 3.953125 0 C 3.953125 0 3.953125 -0.0625 3.953125 -0.1875 C 3.953125 -1.03125 4.289062 -1.484375 4.96875 -1.546875 L 5.859375 -1.59375 L 5.859375 -14.03125 L 2.15625 -14.03125 L 1.9375 -11.5 C 1.65625 -11.5 1.4375 -11.503906 1.28125 -11.515625 C 1.132812 -11.535156 0.957031 -11.625 0.75 -11.78125 C 0.550781 -11.945312 0.453125 -12.191406 0.453125 -12.515625 Z M 0.453125 -15.75 "/></g></g><g style="fill:#0d004c;fill-opacity:1;"><g transform="translate(342.077518, 354.699997)"><path style="stroke:none" d="M 10.21875 -14.953125 C 10.65625 -14.503906 10.875 -13.953125 10.875 -13.296875 C 10.875 -12.640625 10.675781 -12.140625 10.28125 -11.796875 C 9.882812 -11.460938 9.367188 -11.34375 8.734375 -11.4375 C 8.734375 -13.382812 7.882812 -14.359375 6.1875 -14.359375 C 5.4375 -14.359375 4.828125 -14.179688 4.359375 -13.828125 C 3.890625 -13.484375 3.65625 -13.015625 3.65625 -12.421875 C 3.65625 -11.960938 3.757812 -11.617188 3.96875 -11.390625 C 4.1875 -11.171875 4.347656 -11.007812 4.453125 -10.90625 C 4.566406 -10.8125 4.769531 -10.679688 5.0625 -10.515625 C 5.363281 -10.359375 5.578125 -10.25 5.703125 -10.1875 C 5.835938 -10.125 6.109375 -10.003906 6.515625 -9.828125 C 6.921875 -9.648438 7.195312 -9.53125 7.34375 -9.46875 C 8.90625 -8.78125 10.003906 -8.125 10.640625 -7.5 C 11.273438 -6.875 11.59375 -6 11.59375 -4.875 C 11.59375 -3.320312 11.046875 -2.0625 9.953125 -1.09375 C 8.867188 -0.132812 7.398438 0.34375 5.546875 0.34375 C 3.671875 0.34375 2.265625 -0.078125 1.328125 -0.921875 C 0.828125 -1.398438 0.578125 -1.957031 0.578125 -2.59375 C 0.578125 -3.226562 0.78125 -3.726562 1.1875 -4.09375 C 1.59375 -4.457031 2.203125 -4.640625 3.015625 -4.640625 C 3.015625 -3.523438 3.25 -2.707031 3.71875 -2.1875 C 4.1875 -1.664062 4.925781 -1.40625 5.9375 -1.40625 C 6.945312 -1.40625 7.742188 -1.640625 8.328125 -2.109375 C 8.910156 -2.578125 9.203125 -3.160156 9.203125 -3.859375 C 9.203125 -4.566406 8.925781 -5.132812 8.375 -5.5625 C 7.820312 -5.988281 7.082031 -6.398438 6.15625 -6.796875 C 5.238281 -7.203125 4.632812 -7.46875 4.34375 -7.59375 C 4.050781 -7.726562 3.664062 -7.941406 3.1875 -8.234375 C 2.71875 -8.535156 2.375 -8.828125 2.15625 -9.109375 C 1.5625 -9.847656 1.265625 -10.691406 1.265625 -11.640625 C 1.265625 -13.097656 1.800781 -14.203125 2.875 -14.953125 C 3.945312 -15.710938 5.238281 -16.09375 6.75 -16.09375 C 8.269531 -16.09375 9.425781 -15.710938 10.21875 -14.953125 Z M 10.21875 -14.953125 "/></g></g><g style="fill:#ffffff;fill-opacity:1;"><g transform="translate(111.169964, 227.139137)"><path style="stroke:none" d="M 30.3125 -55.125 C 35.707031 -55.125 40.425781 -54.023438 44.46875 -51.828125 C 48.519531 -49.640625 51.664062 -46.5 53.90625 -42.40625 C 56.144531 -38.3125 57.265625 -33.335938 57.265625 -27.484375 C 57.265625 -21.785156 56.117188 -16.796875 53.828125 -12.515625 C 51.535156 -8.242188 48.335938 -4.910156 44.234375 -2.515625 C 40.140625 -0.128906 35.472656 1.0625 30.234375 1.0625 C 24.835938 1.0625 20.113281 -0.03125 16.0625 -2.21875 C 12.019531 -4.40625 8.878906 -7.554688 6.640625 -11.671875 C 4.398438 -15.796875 3.28125 -20.757812 3.28125 -26.5625 C 3.28125 -32.269531 4.4375 -37.257812 6.75 -41.53125 C 9.070312 -45.800781 12.253906 -49.132812 16.296875 -51.53125 C 20.347656 -53.925781 25.019531 -55.125 30.3125 -55.125 Z M 30 -53.75 C 27.15625 -53.75 24.675781 -52.601562 22.5625 -50.3125 C 20.445312 -48.019531 18.816406 -44.863281 17.671875 -40.84375 C 16.523438 -36.820312 15.953125 -32.164062 15.953125 -26.875 C 15.953125 -21.476562 16.597656 -16.78125 17.890625 -12.78125 C 19.191406 -8.789062 20.945312 -5.710938 23.15625 -3.546875 C 25.375 -1.390625 27.832031 -0.3125 30.53125 -0.3125 C 33.382812 -0.3125 35.867188 -1.453125 37.984375 -3.734375 C 40.097656 -6.023438 41.722656 -9.191406 42.859375 -13.234375 C 44.003906 -17.285156 44.578125 -21.929688 44.578125 -27.171875 C 44.578125 -32.617188 43.925781 -37.328125 42.625 -41.296875 C 41.332031 -45.265625 39.578125 -48.332031 37.359375 -50.5 C 35.148438 -52.664062 32.695312 -53.75 30 -53.75 Z M 30 -53.75 "/></g></g><g style="fill:#ffffff;fill-opacity:1;"><g transform="translate(182.541991, 227.139137)"><path style="stroke:none" d="M 26.640625 -54.046875 L 26.640625 -52.53125 C 24.910156 -52.476562 23.597656 -52.285156 22.703125 -51.953125 C 21.816406 -51.617188 21.21875 -51.003906 20.90625 -50.109375 C 20.601562 -49.222656 20.453125 -47.835938 20.453125 -45.953125 L 20.453125 -7.171875 C 20.453125 -5.597656 20.566406 -4.425781 20.796875 -3.65625 C 21.023438 -2.894531 21.484375 -2.382812 22.171875 -2.125 C 22.859375 -1.875 23.890625 -1.75 25.265625 -1.75 L 29.015625 -1.75 C 30.742188 -1.75 32.367188 -2.15625 33.890625 -2.96875 C 35.421875 -3.789062 36.796875 -4.953125 38.015625 -6.453125 C 39.234375 -7.953125 40.25 -9.742188 41.0625 -11.828125 C 41.882812 -13.921875 42.5 -16.238281 42.90625 -18.78125 L 44.65625 -18.78125 C 44.507812 -17.050781 44.4375 -14.8125 44.4375 -12.0625 C 44.4375 -10.894531 44.457031 -9.191406 44.5 -6.953125 C 44.550781 -4.710938 44.707031 -2.394531 44.96875 0 C 42.375 -0.101562 39.445312 -0.164062 36.1875 -0.1875 C 32.925781 -0.21875 30.023438 -0.234375 27.484375 -0.234375 C 26.210938 -0.234375 24.582031 -0.234375 22.59375 -0.234375 C 20.613281 -0.234375 18.476562 -0.21875 16.1875 -0.1875 C 13.894531 -0.164062 11.578125 -0.140625 9.234375 -0.109375 C 6.890625 -0.0859375 4.675781 -0.0507812 2.59375 0 L 2.59375 -1.53125 C 4.21875 -1.625 5.4375 -1.820312 6.25 -2.125 C 7.070312 -2.4375 7.625 -3.050781 7.90625 -3.96875 C 8.1875 -4.882812 8.328125 -6.257812 8.328125 -8.09375 L 8.328125 -45.953125 C 8.328125 -47.835938 8.1875 -49.222656 7.90625 -50.109375 C 7.625 -51.003906 7.0625 -51.617188 6.21875 -51.953125 C 5.382812 -52.285156 4.175781 -52.476562 2.59375 -52.53125 L 2.59375 -54.046875 C 3.863281 -53.992188 5.582031 -53.941406 7.75 -53.890625 C 9.914062 -53.847656 12.21875 -53.828125 14.65625 -53.828125 C 16.894531 -53.828125 19.09375 -53.847656 21.25 -53.890625 C 23.414062 -53.941406 25.210938 -53.992188 26.640625 -54.046875 Z M 26.640625 -54.046875 "/></g></g><g style="fill:#ffffff;fill-opacity:1;"><g transform="translate(234.372677, 227.139137)"><path style="stroke:none" d="M 51.765625 -54.046875 L 51.765625 -52.53125 C 50.640625 -52.113281 49.453125 -51.21875 48.203125 -49.84375 C 46.960938 -48.476562 45.804688 -46.34375 44.734375 -43.4375 L 28.625 0.15625 C 28.21875 0.101562 27.785156 0.078125 27.328125 0.078125 C 26.867188 0.078125 26.410156 0.078125 25.953125 0.078125 C 25.546875 0.078125 25.113281 0.078125 24.65625 0.078125 C 24.195312 0.078125 23.765625 0.101562 23.359375 0.15625 L 3.890625 -47.640625 C 3.179688 -49.472656 2.394531 -50.734375 1.53125 -51.421875 C 0.664062 -52.109375 -0.148438 -52.476562 -0.921875 -52.53125 L -0.921875 -54.046875 C 0.609375 -53.992188 2.40625 -53.941406 4.46875 -53.890625 C 6.53125 -53.847656 8.601562 -53.828125 10.6875 -53.828125 C 13.03125 -53.828125 15.234375 -53.847656 17.296875 -53.890625 C 19.359375 -53.941406 21.023438 -53.992188 22.296875 -54.046875 L 22.296875 -52.53125 C 20.660156 -52.476562 19.382812 -52.285156 18.46875 -51.953125 C 17.550781 -51.617188 17.039062 -51.003906 16.9375 -50.109375 C 16.84375 -49.222656 17.148438 -47.890625 17.859375 -46.109375 L 31.765625 -10.765625 L 30.15625 -8.859375 L 40.6875 -37.25 C 42.0625 -41.070312 42.773438 -44.078125 42.828125 -46.265625 C 42.878906 -48.453125 42.34375 -50.03125 41.21875 -51 C 40.101562 -51.96875 38.503906 -52.476562 36.421875 -52.53125 L 36.421875 -54.046875 C 38.148438 -53.992188 39.773438 -53.941406 41.296875 -53.890625 C 42.828125 -53.847656 44.378906 -53.828125 45.953125 -53.828125 C 47.078125 -53.828125 48.132812 -53.847656 49.125 -53.890625 C 50.113281 -53.941406 50.992188 -53.992188 51.765625 -54.046875 Z M 51.765625 -54.046875 "/></g></g><g style="fill:#ffffff;fill-opacity:1;"><g transform="translate(292.004677, 227.139137)"><path style="stroke:none" d="M 10.3125 -10.6875 C 12.289062 -10.6875 13.863281 -10.164062 15.03125 -9.125 C 16.207031 -8.082031 16.796875 -6.644531 16.796875 -4.8125 C 16.796875 -2.976562 16.207031 -1.539062 15.03125 -0.5 C 13.863281 0.539062 12.289062 1.0625 10.3125 1.0625 C 8.320312 1.0625 6.738281 0.539062 5.5625 -0.5 C 4.394531 -1.539062 3.8125 -2.976562 3.8125 -4.8125 C 3.8125 -6.644531 4.394531 -8.082031 5.5625 -9.125 C 6.738281 -10.164062 8.320312 -10.6875 10.3125 -10.6875 Z M 10.3125 -10.6875 "/></g></g><g style="fill:#ffffff;fill-opacity:1;"><g transform="translate(38.755742, 228.537937)"><path style="stroke:none" d="M 32.125 -81.578125 C 36.582031 -81.578125 40.015625 -81.101562 42.421875 -80.15625 C 44.835938 -79.21875 46.914062 -78.21875 48.65625 -77.15625 C 49.5625 -76.632812 50.296875 -76.238281 50.859375 -75.96875 C 51.421875 -75.707031 51.96875 -75.578125 52.5 -75.578125 C 53.25 -75.578125 53.789062 -75.988281 54.125 -76.8125 C 54.46875 -77.644531 54.753906 -78.894531 54.984375 -80.5625 L 57.59375 -80.5625 C 57.507812 -79.125 57.410156 -77.40625 57.296875 -75.40625 C 57.191406 -73.40625 57.117188 -70.785156 57.078125 -67.546875 C 57.035156 -64.304688 57.015625 -60.046875 57.015625 -54.765625 L 54.421875 -54.765625 C 54.117188 -58.679688 53.210938 -62.488281 51.703125 -66.1875 C 50.191406 -69.882812 48.0625 -72.921875 45.3125 -75.296875 C 42.5625 -77.671875 39.1875 -78.859375 35.1875 -78.859375 C 31.5625 -78.859375 28.578125 -77.835938 26.234375 -75.796875 C 23.898438 -73.765625 22.734375 -70.9375 22.734375 -67.3125 C 22.734375 -64.300781 23.488281 -61.71875 25 -59.5625 C 26.507812 -57.414062 28.71875 -55.320312 31.625 -53.28125 C 34.53125 -51.25 38.054688 -48.800781 42.203125 -45.9375 C 45.816406 -43.59375 49.054688 -41.25 51.921875 -38.90625 C 54.796875 -36.570312 57.097656 -33.9375 58.828125 -31 C 60.566406 -28.0625 61.4375 -24.554688 61.4375 -20.484375 C 61.4375 -15.503906 60.132812 -11.390625 57.53125 -8.140625 C 54.925781 -4.898438 51.507812 -2.46875 47.28125 -0.84375 C 43.0625 0.769531 38.425781 1.578125 33.375 1.578125 C 28.695312 1.578125 24.960938 1.125 22.171875 0.21875 C 19.378906 -0.675781 17.039062 -1.617188 15.15625 -2.609375 C 13.5 -3.660156 12.21875 -4.1875 11.3125 -4.1875 C 10.5625 -4.1875 10.015625 -3.769531 9.671875 -2.9375 C 9.335938 -2.113281 9.054688 -0.867188 8.828125 0.796875 L 6.21875 0.796875 C 6.375 -1.015625 6.46875 -3.128906 6.5 -5.546875 C 6.539062 -7.960938 6.578125 -11.109375 6.609375 -14.984375 C 6.648438 -18.867188 6.671875 -23.789062 6.671875 -29.75 L 9.28125 -29.75 C 9.582031 -24.769531 10.429688 -20.113281 11.828125 -15.78125 C 13.222656 -11.445312 15.367188 -7.957031 18.265625 -5.3125 C 21.171875 -2.675781 25.039062 -1.359375 29.875 -1.359375 C 32.507812 -1.359375 34.863281 -1.828125 36.9375 -2.765625 C 39.007812 -3.710938 40.6875 -5.128906 41.96875 -7.015625 C 43.257812 -8.898438 43.90625 -11.238281 43.90625 -14.03125 C 43.90625 -17.195312 43.164062 -19.945312 41.6875 -22.28125 C 40.21875 -24.625 38.21875 -26.8125 35.6875 -28.84375 C 33.164062 -30.882812 30.242188 -32.960938 26.921875 -35.078125 C 23.378906 -37.410156 20.0625 -39.742188 16.96875 -42.078125 C 13.875 -44.421875 11.398438 -47.097656 9.546875 -50.109375 C 7.703125 -53.128906 6.78125 -56.71875 6.78125 -60.875 C 6.78125 -65.625 7.96875 -69.523438 10.34375 -72.578125 C 12.726562 -75.628906 15.859375 -77.890625 19.734375 -79.359375 C 23.617188 -80.835938 27.75 -81.578125 32.125 -81.578125 Z M 32.125 -81.578125 "/></g></g><g clip-rule="nonzero" clip-path="url(#5d4822e4a9)"><path style=" stroke:none;fill-rule:nonzero;fill:#ffffff;fill-opacity:1;" d="M 323.664062 168.003906 C 305.449219 168.003906 290.632812 153.1875 290.632812 134.976562 C 290.632812 116.761719 305.449219 101.945312 323.664062 101.945312 C 341.875 101.945312 356.691406 116.761719 356.691406 134.976562 C 356.691406 153.1875 341.875 168.003906 323.664062 168.003906 Z M 323.664062 104.699219 C 306.96875 104.699219 293.386719 118.285156 293.386719 134.976562 C 293.386719 151.667969 306.96875 165.253906 323.664062 165.253906 C 340.355469 165.253906 353.941406 151.667969 353.941406 134.976562 C 353.941406 118.285156 340.355469 104.699219 323.664062 104.699219 Z M 323.664062 104.699219 "/></g><path style="fill:none;stroke-width:4;stroke-linecap:butt;stroke-linejoin:miter;stroke:#ffffff;stroke-opacity:1;stroke-miterlimit:4;" d="M 0.000762383 2.001823 L 313.333226 2.001823 " transform="matrix(1.021379,0,0,1.021379,18.303909,236.240536)"/><g clip-rule="nonzero" clip-path="url(#c5c463ae42)"><path style=" stroke:none;fill-rule:evenodd;fill:#f8f9f9;fill-opacity:1;" d="M 312.480469 114.492188 C 312.433594 114.492188 312.257812 115.097656 312.085938 115.835938 C 311.914062 116.578125 311.667969 117.628906 311.539062 118.175781 C 311 120.476562 310.785156 121.40625 310.566406 122.375 C 310.519531 122.582031 310.390625 123.136719 310.28125 123.605469 C 310.171875 124.070312 310.042969 124.621094 309.996094 124.832031 C 309.757812 125.902344 309.507812 126.941406 309.425781 127.199219 C 309.320312 127.542969 309.308594 127.832031 309.40625 127.789062 C 309.445312 127.769531 309.722656 127.640625 310.019531 127.496094 C 310.320312 127.355469 310.808594 127.125 311.105469 126.988281 C 311.40625 126.851562 312.5 126.347656 313.539062 125.867188 C 314.578125 125.390625 315.671875 124.886719 315.96875 124.75 C 316.269531 124.613281 316.75 124.390625 317.039062 124.257812 C 317.332031 124.125 317.589844 124.039062 317.617188 124.066406 C 317.644531 124.09375 317.507812 124.699219 317.316406 125.417969 C 317.121094 126.132812 316.523438 128.355469 315.984375 130.355469 C 315.445312 132.351562 314.941406 134.222656 314.859375 134.507812 C 314.6875 135.125 313.328125 140.152344 311.605469 146.546875 C 310.921875 149.089844 310.171875 151.863281 309.941406 152.707031 C 309.714844 153.550781 309.527344 154.285156 309.527344 154.335938 C 309.527344 154.433594 310.902344 154.46875 315.964844 154.503906 L 319.050781 154.523438 L 319.101562 154.21875 C 319.128906 154.046875 319.214844 153.464844 319.296875 152.917969 C 319.378906 152.375 319.484375 151.671875 319.535156 151.359375 C 319.582031 151.050781 320.03125 148.097656 320.527344 144.800781 C 321.023438 141.5 321.492188 138.378906 321.574219 137.859375 C 321.847656 136.054688 322.078125 134.507812 322.222656 133.542969 C 322.300781 133.007812 322.425781 132.191406 322.496094 131.722656 C 322.566406 131.253906 322.875 129.230469 323.175781 127.21875 C 323.480469 125.207031 323.742188 123.578125 323.761719 123.597656 C 323.785156 123.625 324.785156 130.085938 325.195312 132.902344 C 325.246094 133.242188 325.375 134.089844 325.480469 134.792969 C 325.589844 135.492188 325.714844 136.34375 325.765625 136.679688 C 325.8125 137.019531 325.914062 137.695312 325.992188 138.191406 C 326.066406 138.683594 326.644531 142.507812 327.273438 146.6875 C 327.898438 150.867188 328.433594 154.347656 328.460938 154.421875 C 328.5 154.535156 329.207031 154.546875 333.242188 154.492188 C 335.847656 154.457031 337.992188 154.414062 338.007812 154.398438 C 338.023438 154.378906 338 154.242188 337.953125 154.089844 C 337.902344 153.9375 337.367188 151.96875 336.757812 149.707031 C 336.152344 147.449219 335.28125 144.222656 334.824219 142.535156 C 334.367188 140.847656 333.414062 137.320312 332.707031 134.695312 C 330.734375 127.382812 329.996094 124.65625 329.945312 124.523438 C 329.871094 124.332031 330.03125 124.378906 331.015625 124.839844 C 333.539062 126.007812 334.019531 126.226562 334.640625 126.507812 C 335.605469 126.945312 336.382812 127.308594 336.992188 127.605469 C 337.328125 127.765625 337.640625 127.898438 337.6875 127.898438 C 337.785156 127.898438 337.75 127.65625 337.535156 126.8125 C 337.378906 126.207031 337.097656 125.003906 336.71875 123.320312 C 336.671875 123.113281 336.546875 122.582031 336.445312 122.140625 C 336.339844 121.699219 336.1875 121.050781 336.109375 120.699219 C 335.742188 119.105469 335.535156 118.222656 335.171875 116.664062 C 335.046875 116.117188 334.890625 115.449219 334.828125 115.175781 C 334.765625 114.90625 334.675781 114.679688 334.625 114.679688 C 334.515625 114.679688 334.222656 114.839844 330.769531 116.804688 C 328.125 118.304688 327.628906 118.585938 326.730469 119.085938 C 326.484375 119.222656 325.859375 119.578125 325.339844 119.875 C 324.820312 120.171875 324.230469 120.503906 324.023438 120.613281 L 323.652344 120.8125 L 323.175781 120.542969 C 322.910156 120.390625 322.527344 120.175781 322.320312 120.058594 C 322.109375 119.941406 321.75 119.742188 321.515625 119.609375 C 321.28125 119.480469 319.730469 118.601562 318.070312 117.65625 C 314.699219 115.742188 314.328125 115.53125 313.585938 115.125 C 313.300781 114.96875 312.953125 114.761719 312.816406 114.667969 C 312.675781 114.570312 312.527344 114.492188 312.480469 114.492188 Z M 312.480469 114.492188 "/></g><g clip-rule="nonzero" clip-path="url(#fefaef6419)"><path style="fill:none;stroke-width:0.596;stroke-linecap:round;stroke-linejoin:round;stroke:#000000;stroke-opacity:1;stroke-miterlimit:4;" d="M 74.424325 126.093039 C 74.389482 126.093039 74.258822 126.543092 74.131065 127.091865 C 74.003308 127.643543 73.820383 128.424602 73.724566 128.831101 C 73.323874 130.541301 73.164178 131.23235 73.001578 131.952434 C 72.966735 132.106323 72.870918 132.518629 72.789618 132.867057 C 72.708318 133.212581 72.6125 133.621984 72.577657 133.778776 C 72.40054 134.574353 72.214712 135.346702 72.153737 135.538337 C 72.075341 135.793851 72.06663 136.008715 72.139219 135.976775 C 72.168255 135.962258 72.374408 135.86644 72.595079 135.759008 C 72.818653 135.65448 73.181599 135.483169 73.40227 135.381545 C 73.625844 135.27992 74.438843 134.90536 75.211191 134.548221 C 75.98354 134.193986 76.796538 133.819426 77.017209 133.717802 C 77.240783 133.616177 77.597922 133.450674 77.812786 133.351952 C 78.030553 133.253231 78.222188 133.189353 78.242513 133.209678 C 78.262838 133.230003 78.161214 133.680055 78.018939 134.214311 C 77.873761 134.745664 77.429515 136.397792 77.028823 137.884418 C 76.628131 139.36814 76.253571 140.758948 76.192596 140.970908 C 76.064839 141.429671 75.054399 145.16656 73.773926 149.919696 C 73.265802 151.809917 72.708318 153.871449 72.537007 154.498619 C 72.368601 155.125789 72.22923 155.671659 72.22923 155.709406 C 72.22923 155.781995 73.251285 155.808127 77.014305 155.834259 L 79.308122 155.848777 L 79.345868 155.622299 C 79.366193 155.494542 79.430072 155.06191 79.491047 154.655411 C 79.552021 154.251816 79.630418 153.729174 79.668164 153.496889 C 79.703007 153.267507 80.036917 151.072412 80.40567 148.621803 C 80.774422 146.16829 81.12285 143.848341 81.183825 143.462167 C 81.387075 142.12072 81.558385 140.970908 81.665817 140.253727 C 81.723888 139.855939 81.816802 139.249094 81.869067 138.900666 C 81.921331 138.552238 82.150712 137.048191 82.374287 135.552855 C 82.600765 134.057519 82.795304 132.846732 82.809822 132.86125 C 82.827243 132.881575 83.570556 137.684072 83.87543 139.777542 C 83.913177 140.030153 84.008994 140.660226 84.08739 141.182868 C 84.16869 141.702606 84.261604 142.335584 84.299351 142.58529 C 84.334194 142.8379 84.409686 143.340217 84.467758 143.70897 C 84.522925 144.074819 84.952653 146.91741 85.420127 150.024225 C 85.884697 153.13104 86.282486 155.718116 86.302811 155.773284 C 86.331846 155.857487 86.857392 155.866198 89.856775 155.825548 C 91.793453 155.799416 93.38751 155.767477 93.399125 155.755863 C 93.410739 155.741345 93.393317 155.63972 93.358475 155.526481 C 93.320728 155.413242 92.92294 153.949845 92.469984 152.268681 C 92.019931 150.59042 91.372436 148.192075 91.032719 146.937735 C 90.693002 145.683394 89.984532 143.061475 89.458986 141.110279 C 87.992686 135.674805 87.443912 133.648116 87.406166 133.549395 C 87.350998 133.40712 87.470044 133.441963 88.201743 133.784584 C 90.077446 134.65275 90.434584 134.815349 90.896251 135.024406 C 91.613432 135.349605 92.191241 135.619637 92.644198 135.840308 C 92.893904 135.959354 93.126189 136.058075 93.161032 136.058075 C 93.233621 136.058075 93.207489 135.878054 93.047793 135.250884 C 92.931651 134.800831 92.722594 133.906533 92.440948 132.655097 C 92.406105 132.501208 92.313191 132.106323 92.237698 131.77822 C 92.159302 131.450117 92.046063 130.968125 91.987992 130.706804 C 91.715057 129.52215 91.561168 128.865944 91.291136 127.707421 C 91.198222 127.300922 91.082079 126.804412 91.035622 126.601163 C 90.989165 126.400817 90.922383 126.23241 90.884637 126.23241 C 90.803337 126.23241 90.58557 126.351456 88.018818 127.81195 C 86.053104 128.926919 85.684351 129.135975 85.016531 129.507632 C 84.833607 129.609257 84.369036 129.873481 83.982862 130.094152 C 83.596688 130.314823 83.15825 130.561626 83.004361 130.642926 L 82.728522 130.791008 L 82.374287 130.590662 C 82.176844 130.477423 81.892295 130.317727 81.738406 130.23062 C 81.581614 130.143513 81.314486 129.995431 81.140272 129.89671 C 80.966058 129.800892 79.813342 129.14759 78.579327 128.444927 C 76.07355 127.02218 75.797711 126.865387 75.246034 126.563417 C 75.034074 126.447274 74.775656 126.293385 74.674032 126.223699 C 74.569503 126.15111 74.459168 126.093039 74.424325 126.093039 Z M 74.424325 126.093039 " transform="matrix(1.345329,0,0,1.345329,212.355283,-55.144405)"/></g></g></svg>